<svg width="512" height="513" viewBox="0 0 512 513" fill="none" xmlns="http://www.w3.org/2000/svg">
<path d="M511.303 255.885C511.303 397.094 396.846 511.566 255.655 511.566C114.465 511.566 0.0078125 397.094 0.0078125 255.885C0.0078125 114.676 114.465 0.203247 255.655 0.203247C396.846 0.203247 511.303 114.676 511.303 255.885Z" fill="#C3C9D1"/>
<path d="M414.279 55.4567C414.279 56.1444 414.332 56.8251 414.332 57.5128C414.314 250.418 274.098 414.698 83.6125 445.002C187.696 540.415 349.407 533.381 444.806 429.29C540.21 325.203 533.173 163.461 429.1 68.0482C424.321 63.6567 419.375 59.4607 414.279 55.4567Z" fill="#B7BDC4"/>
<path d="M133.305 219.552C118.698 219.552 106.859 207.711 106.859 193.102C106.859 178.492 118.698 166.651 133.305 166.651C147.913 166.651 159.752 178.492 159.752 193.102C159.752 207.711 147.913 219.552 133.305 219.552ZM133.305 184.287C128.44 184.287 124.489 188.235 124.489 193.102C124.489 197.968 128.44 201.919 133.305 201.919C138.171 201.919 142.122 197.968 142.122 193.102C142.122 188.235 138.171 184.287 133.305 184.287Z" fill="#808B96"/>
<path d="M62.7819 210.737H80.4119V228.37H62.7819V210.737Z" fill="#808B96"/>
<path d="M186.199 104.936H203.829V122.572H186.199V104.936Z" fill="#808B96"/>
<path d="M300.799 175.469H318.429V193.105H300.799V175.469Z" fill="#808B96"/>
<path d="M203.829 334.167C184.356 334.167 168.566 318.378 168.566 298.903C168.566 279.427 184.356 263.634 203.829 263.634C223.302 263.634 239.089 279.427 239.089 298.903C239.089 318.378 223.302 334.167 203.829 334.167ZM203.829 281.27C194.087 281.27 186.199 289.16 186.199 298.903C186.199 308.642 194.087 316.535 203.829 316.535C213.571 316.535 221.459 308.642 221.459 298.903C221.459 289.16 213.56 281.27 203.829 281.27Z" fill="#808B96"/>
<path d="M441.847 351.803H459.477V369.436H441.847V351.803Z" fill="#808B96"/>
<path d="M397.77 131.386H415.4V149.019H397.77V131.386Z" fill="#808B96"/>
<path d="M327.246 448.783H344.876V466.419H327.246V448.783Z" fill="#808B96"/>
<path d="M124.489 404.7H142.122V422.336H124.489V404.7Z" fill="#808B96"/>
<path d="M336.059 316.535H353.693V334.171H336.059V316.535Z" fill="#808B96"/>
<path d="M11.7766 247.835C39.2251 208.011 72.7784 172.753 111.194 143.367C138.241 122.684 163.005 99.1693 185.051 73.2217L210.89 42.8337C214.6 38.4771 218.384 34.1938 222.244 29.9699C232.922 18.5163 245.075 8.53594 258.388 0.294001C256.625 0.294001 254.967 0.196257 253.239 0.203238C244.237 0.294001 235.257 0.85603 226.318 1.88933C220.286 6.9057 214.593 12.3096 209.26 18.059C205.246 22.4296 201.316 26.8839 197.473 31.4046L171.616 61.8066C150.381 86.7837 126.534 109.432 100.503 129.365C62.3595 158.566 28.8342 193.349 1.06454 232.538C0.296648 241.049 -0.0558829 249.633 0.00694436 258.3C0.00694436 260.224 0.14656 262.126 0.209388 264.039L7.16576 254.492L11.7766 247.835Z" fill="#808B96"/>
<path d="M338.52 405.168C365.567 384.478 390.321 360.953 412.384 335.016L438.224 304.614C452.433 287.917 467.808 272.239 484.238 257.717L510.349 234.618C509.787 227.717 509.009 220.875 507.91 214.137L499.78 220.452L472.513 244.504C455.456 259.589 439.501 275.856 424.744 293.199L398.943 323.597C377.697 348.585 353.85 371.226 327.812 391.159C287.913 421.655 253.072 458.254 224.573 499.603L218.049 508.774C224.688 509.751 231.421 510.421 238.21 510.882L239.093 509.611C266.541 469.795 300.101 434.544 338.52 405.168Z" fill="#808B96"/>
<path d="M328.478 292.801C384.943 256.583 433.435 209.254 471.033 153.693L482.133 137.321C479.03 131.397 475.714 125.613 472.196 119.961L468.929 125.4L456.444 143.789C420.178 197.371 373.393 243.003 318.932 277.926C262.918 313.882 214.733 360.768 177.26 415.784L133.183 480.323C138.367 483.161 143.654 485.807 149.051 488.258L191.777 425.659C227.937 372.626 274.429 327.44 328.478 292.801Z" fill="#808B96"/>
<path d="M120.154 299.377C168.206 267.478 209.047 225.874 240.042 177.225C269.689 130.646 308.768 90.7947 354.758 60.2461L382.332 41.8876L389.543 38.107C383.665 34.4835 377.634 31.0974 371.456 27.9486L345.009 45.5845C296.964 77.4735 256.129 119.078 225.145 167.719C195.48 214.309 156.384 254.157 110.377 284.709C77.829 306.415 48.527 332.624 23.3508 362.566C25.9965 368.326 28.7888 374.03 31.8499 379.503L33.0227 378.233C57.9965 347.782 87.3578 321.199 120.154 299.377Z" fill="#808B96"/>
<circle cx="130.903" cy="413.518" r="15" fill="#7F8A94"/>
<circle cx="309.614" cy="181.651" r="15" fill="#7F8A94"/>
<circle cx="69.2368" cy="219.399" r="15" fill="#7F8A94"/>
<circle cx="192.237" cy="114.357" r="15" fill="#7F8A94"/>
<circle cx="333.57" cy="458.399" r="15" fill="#7F8A94"/>
<circle cx="344.876" cy="327.982" r="15" fill="#7F8A94"/>
<circle cx="449.237" cy="360.649" r="15" fill="#7F8A94"/>
<circle cx="406.585" cy="140.203" r="15" fill="#7F8A94"/>
<ellipse cx="135.403" cy="199.774" rx="19.5" ry="19.625" fill="#99A3AC"/>
<ellipse cx="196.232" cy="304.109" rx="27.6666" ry="26.25" fill="#99A3AC"/>
</svg>
