<svg width="464" height="464" viewBox="0 0 464 464" fill="none" xmlns="http://www.w3.org/2000/svg">
<path d="M390.16 120.16C394.471 125.846 398.451 131.776 402.08 137.92C407.905 147.654 412.806 157.912 416.72 168.56C421.929 182.552 425.343 197.149 426.88 212C428.615 227.383 428.346 242.926 426.08 258.24C411.581 358.821 318.291 428.604 217.71 414.106C162.718 406.179 114.252 373.827 85.84 326.08C60.232 282.883 53.328 231.118 66.72 182.72C93.957 84.7951 195.421 27.4911 293.346 54.7281C331.869 65.4431 365.854 88.4121 390.16 120.16Z" fill="#FFCB5A"/>
<path d="M149.92 73.8399C181.98 54.6849 219.147 45.833 256.4 48.48C216.48 79.52 220.24 93.36 171.84 127.68C122.4 162.64 111.12 153.44 66.72 182.72C79.33 137.033 109.15 98.0089 149.92 73.8399Z" fill="#F38A68"/>
<path d="M402.08 137.92C407.905 147.654 412.806 157.912 416.72 168.56C421.929 182.552 425.343 197.149 426.88 212L426.24 212.08C394.96 225.44 373.12 218.64 348.08 227.36C323.04 236.08 312.32 245.52 301.6 266.64C290.88 287.76 295.44 309.76 266 326.72C240.88 341.2 226.96 330.24 204.48 336.72C182 343.2 124.96 369.2 124.96 369.2L123.44 371.04C108.582 358.161 95.8869 342.982 85.8399 326.08C80.1089 316.443 75.2879 306.292 71.4399 295.76L75.5199 294.32C75.5199 294.32 111.68 294.32 134.72 278.24C157.76 262.16 167.2 223.28 213.6 203.44C260 183.6 274.32 199.92 303.6 191.76C332.24 183.84 380.88 145.84 390.16 120.16C394.471 125.846 398.451 131.776 402.08 137.92Z" fill="#D95354"/>
<path d="M426.88 212C428.615 227.383 428.346 242.926 426.08 258.24C367.2 292.72 373.76 306.8 312.48 342.08C250.08 378 237.6 366.72 175.2 402.64C156.3 395.078 138.803 384.396 123.44 371.04L124.96 369.2C124.96 369.2 182 343.28 204.48 336.72C226.96 330.16 240.88 341.2 266 326.72C295.44 309.76 290.88 287.76 301.6 266.64C312.32 245.52 322.96 236.08 348.08 227.36C373.2 218.64 394.96 225.44 426.24 212.08L426.88 212Z" fill="#E76E54"/>
<path d="M390.16 120.16C380.88 145.84 332.24 183.84 303.6 191.76C274.32 199.92 260 183.6 213.6 203.44C167.2 223.28 157.76 262.24 134.72 278.24C111.68 294.24 75.52 294.32 75.52 294.32L71.44 295.76C65.699 280.35 62.092 264.227 60.72 247.84C125.04 205.84 135.6 216.96 203.44 171.52C271.28 126.08 265.04 112.16 328.56 68.5601C352.638 81.0211 373.671 98.6391 390.16 120.16Z" fill="#FFCB5A"/>
<path d="M328.56 68.56C265.04 112.16 271.36 126 203.44 171.52C135.52 217.04 125.04 205.84 60.72 247.84C58.773 225.949 60.805 203.887 66.72 182.72C111.12 153.44 122.4 162.64 171.84 127.68C220.24 93.36 216.48 79.52 256.4 48.48C281.57 50.186 306.126 57.019 328.56 68.56Z" fill="#E76E54"/>
<path d="M312.48 342.08C373.76 306.8 367.2 292.72 426.08 258.24C411.573 358.82 318.277 428.595 217.697 414.088C203.124 411.986 188.857 408.143 175.2 402.64C237.6 366.72 250.08 378 312.48 342.08Z" fill="#F38A68"/>
<path d="M208.456 248.336C194.328 256.776 189.064 272.04 184.456 285.512C182.292 294.912 177.689 303.576 171.112 310.632C143.864 332.432 99.32 335.016 91.872 335.296C95.362 340.517 99.114 345.558 103.112 350.4C117.376 349.48 153.736 345 181.088 323.12C190.195 314.298 196.598 303.061 199.544 290.728C203.664 278.792 207.544 267.528 216.64 262.08C229.162 254.694 245.298 258.821 252.736 271.312C255.145 275.311 255.848 280.11 254.688 284.632C253.543 289.209 250.609 293.134 246.544 295.528C241.245 298.719 234.363 297.01 231.172 291.711C231.136 291.65 231.1 291.59 231.064 291.528C229.278 288.505 230.242 284.609 233.232 282.768C233.906 282.375 234.706 282.257 235.464 282.44C236.184 282.623 236.799 283.091 237.168 283.736L250.984 275.672C248.469 271.327 244.306 268.18 239.44 266.944C234.552 265.696 229.369 266.45 225.04 269.04C214.464 275.431 211.036 289.164 217.368 299.776C225.005 312.712 241.683 317.007 254.619 309.37C254.661 309.345 254.702 309.321 254.744 309.296C270.719 299.853 276.014 279.249 266.572 263.274C266.542 263.223 266.511 263.171 266.48 263.12C254.518 243.043 228.566 236.431 208.456 248.336Z" fill="#E76E54"/>
</svg>
