<svg width="180" height="108" viewBox="0 0 180 108" fill="none" xmlns="http://www.w3.org/2000/svg">
<path d="M116.584 5.92044C102.456 14.3604 97.192 29.6244 92.584 43.0964C90.42 52.4964 85.817 61.1604 79.24 68.2164C51.992 90.0164 7.448 92.6004 0 92.8804C3.49 98.1014 7.242 103.142 11.24 107.984C25.504 107.064 61.864 102.584 89.216 80.7044C98.323 71.8824 104.726 60.6454 107.672 48.3124C111.792 36.3764 115.672 25.1124 124.768 19.6644C137.29 12.2784 153.426 16.4055 160.864 28.8965C163.273 32.8955 163.976 37.6944 162.816 42.2164C161.671 46.7934 158.737 50.7185 154.672 53.1125C149.373 56.3035 142.491 54.5944 139.3 49.2954C139.264 49.2344 139.228 49.1745 139.192 49.1125C137.406 46.0895 138.37 42.1934 141.36 40.3524C142.034 39.9594 142.834 39.8414 143.592 40.0244C144.312 40.2074 144.927 40.6754 145.296 41.3204L159.112 33.2564C156.597 28.9114 152.434 25.7644 147.568 24.5284C142.68 23.2804 137.497 24.0344 133.168 26.6244C122.592 33.0154 119.164 46.7484 125.496 57.3604C133.133 70.2964 149.811 74.5914 162.747 66.9544C162.789 66.9294 162.83 66.9054 162.872 66.8804C178.847 57.4374 184.142 36.8334 174.7 20.8584C174.67 20.8074 174.639 20.7554 174.608 20.7044C162.646 0.627436 136.694 -5.98456 116.584 5.92044Z" fill="#E76E54"/>
</svg>
