<svg width="512" height="512" viewBox="0 0 512 512" fill="none" xmlns="http://www.w3.org/2000/svg">
<ellipse cx="256.525" cy="256" rx="244.475" ry="245" fill="#D8FF33"/>
<path d="M499.5 256.001V255.998C499.537 220.026 491.585 184.495 476.22 151.97C461.082 119.927 439.121 91.5898 411.883 68.9395L403.069 81.234L403.016 81.3076L402.955 81.3743C388.077 97.585 374.966 115.333 363.844 134.318L354.813 149.764C353.755 151.663 353.311 153.843 353.541 156.005C353.771 158.171 354.668 160.213 356.106 161.849L356.109 161.852C359.315 165.516 363.76 167.869 368.592 168.461L368.594 168.461L372.954 169.001C372.954 169.001 372.954 169.001 372.954 169.001C381.568 170.066 389.687 173.607 396.328 179.196C402.969 184.784 407.845 192.179 410.365 200.484L410.366 200.487C412.793 208.541 412.863 217.121 410.568 225.214C408.273 233.306 403.709 240.572 397.415 246.152L397.413 246.154L354.253 284.274C352.307 285.993 350.749 288.105 349.681 290.472C348.614 292.838 348.061 295.404 348.06 298C348.06 298 348.06 298 348.06 298C348.06 298 348.06 298.001 348.06 298.001L348.06 308.12V308.123C348.056 310.293 348.598 312.429 349.636 314.335C350.674 316.24 352.174 317.854 353.999 319.027C359.408 322.493 363.959 327.141 367.309 332.622C370.66 338.102 372.723 344.27 373.343 350.663C373.343 350.664 373.343 350.665 373.343 350.665L374.353 360.761L374.353 360.765C374.598 363.293 375.778 365.639 377.661 367.343C379.544 369.047 381.996 369.988 384.536 369.98H384.54H409.81C415.827 369.979 421.713 368.225 426.751 364.934C431.788 361.643 435.758 356.957 438.176 351.447L438.177 351.447L439.694 347.992C439.695 347.99 439.696 347.988 439.697 347.987M499.5 256.001L477.11 323.87C469.388 324.193 461.913 326.683 455.54 331.054C449.166 335.426 444.152 341.503 441.07 348.59L439.697 347.987M499.5 256.001C499.519 278.098 496.532 300.092 490.621 321.38L484.629 321.986C484.626 321.986 484.623 321.986 484.62 321.987C484.048 322.037 483.509 322.083 482.996 322.101L482.989 322.101L482.982 322.102L477.047 322.371C477.046 322.371 477.044 322.371 477.042 322.372M499.5 256.001L477.042 322.372M439.697 347.987C442.891 340.643 448.087 334.347 454.691 329.817C461.296 325.287 469.041 322.707 477.042 322.372M439.697 347.987L477.042 322.372" fill="#D8FF33" stroke="#D8FF33" stroke-width="3"/>
<path d="M484.76 323.48L491.79 322.77C462.72 425.63 368.16 501 256 501C120.69 501 11 391.31 11 256C11 248.29 11.35 240.67 12.05 233.14L15.01 233.42L18.35 232.76C26.2654 231.211 34.4667 232.171 41.8108 235.505C49.1548 238.839 55.2756 244.382 59.32 251.36C61.2287 254.63 63.5998 257.608 66.36 260.2L83.78 276.6C86.894 279.526 90.6777 281.645 94.8 282.77L96.83 283.33C102.727 284.95 108.104 288.069 112.437 292.383C116.771 296.698 119.914 302.061 121.56 307.95L130.89 341.64C132.018 345.685 133.905 349.48 136.45 352.82L164.74 389.91C168.271 394.542 170.618 399.966 171.58 405.71L179.27 451.85C179.515 453.505 180.362 455.012 181.65 456.08C182.57 456.819 183.673 457.296 184.842 457.46C186.011 457.624 187.202 457.468 188.29 457.01C190.473 456.098 192.366 454.607 193.766 452.699C195.165 450.79 196.017 448.537 196.23 446.18C197.162 436.748 200.935 427.821 207.05 420.58L215.25 410.73C216.7 408.985 217.788 406.969 218.45 404.8L226.88 377.48C229.366 369.406 234.3 362.305 241 357.16L266.06 337.92C267.881 336.563 269.118 334.565 269.52 332.33C269.724 331.106 269.656 329.851 269.323 328.656C268.99 327.46 268.398 326.352 267.59 325.41L250.91 305.78C249.91 304.61 248.96 303.39 248.07 302.14L235.31 284.37C228.26 274.53 216.98 268.01 204.87 268.33C203.654 268.359 202.455 268.043 201.41 267.42L175.35 251.78C171.601 249.543 167.339 248.312 162.975 248.205C158.611 248.098 154.294 249.119 150.44 251.17L136.71 258.53C130.699 261.75 123.692 262.576 117.098 260.841C110.503 259.107 104.809 254.941 101.16 249.18L87.82 228.12C84.8002 223.348 83.2381 217.799 83.3251 212.152C83.4122 206.505 85.1445 201.007 88.31 196.33C91.7001 191.297 96.425 187.307 101.955 184.808C107.485 182.308 113.602 181.398 119.62 182.18L139.63 184.72C143.122 185.201 146.679 184.644 149.857 183.121C153.036 181.597 155.697 179.173 157.51 176.15C160.634 170.776 165.273 166.442 170.848 163.69C176.422 160.938 182.684 159.891 188.85 160.68L197.6 161.8C200.669 162.184 203.786 161.762 206.643 160.575C209.499 159.388 211.997 157.477 213.89 155.03L221.6 145.03C224.999 140.644 226.908 135.286 227.049 129.738C227.189 124.19 225.553 118.743 222.38 114.19L205.75 90.22C199.376 81.0205 191.069 73.3244 181.41 67.67C178.872 66.189 176.421 64.563 174.07 62.8L160.06 52.28L142.32 38.92C184.979 16.6072 233.264 7.3488 281.151 12.2997C329.038 17.2506 374.408 36.1916 411.6 66.76L401.85 80.36C386.9 96.6491 373.726 114.483 362.55 133.56L353.51 149.02C352.296 151.193 351.786 153.689 352.049 156.164C352.313 158.638 353.337 160.971 354.98 162.84C358.429 166.782 363.211 169.313 368.41 169.95L372.77 170.49C381.095 171.519 388.944 174.942 395.362 180.343C401.781 185.745 406.494 192.893 408.93 200.92C411.274 208.699 411.342 216.988 409.125 224.804C406.908 232.621 402.5 239.64 396.42 245.03L353.26 283.15C351.155 285.009 349.469 287.295 348.314 289.855C347.159 292.415 346.561 295.191 346.56 298V308.12C346.555 310.542 347.16 312.926 348.319 315.053C349.477 317.18 351.153 318.981 353.19 320.29C358.407 323.634 362.797 328.118 366.03 333.404C369.262 338.691 371.252 344.642 371.85 350.81L372.86 360.91C373.141 363.81 374.495 366.5 376.655 368.455C378.815 370.41 381.627 371.489 384.54 371.48H409.81C416.118 371.479 422.29 369.64 427.571 366.19C432.852 362.74 437.015 357.826 439.55 352.05L441.07 348.59C444.152 341.503 449.167 335.426 455.54 331.054C461.913 326.683 469.388 324.193 477.11 323.87L483.05 323.6C483.61 323.58 484.19 323.53 484.76 323.48Z" fill="#55D8D8"/>
<path d="M256 11C216.402 10.9405 177.385 20.5231 142.32 38.92L160.06 52.28L174.07 62.8C176.363 64.5165 178.75 66.103 181.221 67.552L182.321 66.92C217.628 48.4615 256.899 38.8792 296.74 39.0011C336.58 39.1231 375.792 48.9457 410.985 67.62L411.601 66.76C367.806 30.6274 312.776 10.9074 256 11Z" fill="#6BF2EE"/>
<path d="M51 284C51 276.29 51.35 268.67 52.05 261.14L54.356 244.632C49.8795 239.727 44.2149 236.058 37.9084 233.979C31.6018 231.899 24.8659 231.48 18.35 232.76L15.01 233.42L12.05 233.14C11.36 240.67 11.01 248.29 11 256C10.9853 299.564 22.5908 342.343 44.6198 379.927C66.6488 417.51 98.3039 448.538 136.321 469.81C109.528 446.835 88.0278 418.33 73.2994 386.255C58.571 354.179 50.9635 319.295 51 284Z" fill="#6BF2EE"/>
<path d="M54.181 244.441C60.2945 207.163 74.937 171.802 96.9664 141.114C118.996 110.427 147.817 85.2434 181.181 67.528C178.725 66.0851 176.351 64.5067 174.07 62.8L160.06 52.28L142.32 38.92C106.143 57.8754 75.2764 85.5712 52.5258 119.49C29.7751 153.409 15.8617 192.476 12.05 233.14L15.01 233.42L18.35 232.76C24.8229 231.488 31.5136 231.894 37.7854 233.938C44.0572 235.983 49.7015 239.599 54.181 244.441Z" fill="#F5FF92"/>
</svg>
