<svg width="624" height="517" viewBox="0 0 624 517" fill="none" xmlns="http://www.w3.org/2000/svg">
<path d="M547.4 258.6C547.4 401 430.5 516.4 289.6 516.4C147.2 516.4 31.7999 401 31.7999 258.6C31.7999 117.7 147.2 0.699951 289.6 0.699951C430.5 0.799951 547.4 117.7 547.4 258.6Z" fill="#5BC0DE"/>
<path d="M292.5 24.7999C292.5 26.2999 291 26.2999 291 26.2999C289.5 26.2999 288 26.2999 288 24.7999C288 23.2999 289.5 23.2999 291 23.2999C291.1 23.2999 292.5 23.2999 292.5 24.7999Z" fill="white"/>
<path d="M307.5 56.2999C307.5 57.7999 306 59.2999 304.5 59.2999C303 59.2999 301.5 57.7999 301.5 56.2999C301.5 54.7999 303 53.2999 304.5 53.2999C306 53.2999 307.5 54.7999 307.5 56.2999Z" fill="white"/>
<path d="M345 108.7C345 110.2 343.5 111.7 342 111.7C340.5 111.7 339 110.2 339 108.7C339 107.2 340.5 105.7 342 105.7C343.5 105.7 345 107.2 345 108.7Z" fill="white"/>
<path d="M283.6 74.3C283.6 75.8 283.6 77.3 282.1 77.3C280.6 77.3 280.6 75.8 280.6 74.3C280.6 72.8 280.6 72.8 282.1 72.8C283.6 72.8 283.6 72.8 283.6 74.3Z" fill="white"/>
<path d="M306 86.2C306 87.7 306 89.2 304.5 89.2C303 89.2 303 87.7 303 86.2C303 84.7 303 84.7 304.5 84.7C306 84.7 306 84.7 306 86.2Z" fill="white"/>
<path d="M277.6 53.2999C277.6 54.7999 276.1 56.2999 274.6 56.2999C273.1 56.2999 271.6 54.7999 271.6 53.2999C271.6 51.7999 273.1 50.2999 274.6 50.2999C276.1 50.2999 277.6 51.7999 277.6 53.2999Z" fill="white"/>
<path d="M243.1 74.2999L241.6 75.7999C240.1 75.7999 238.6 74.2999 238.6 74.2999C238.6 72.7999 240.1 71.2999 241.6 71.2999C241.6 71.2999 243.1 72.7999 243.1 74.2999Z" fill="white"/>
<path d="M249.1 78.7L247.6 80.2C246.1 80.2 244.6 78.7 244.6 78.7C244.6 77.2 246.1 75.7 247.6 75.7C247.6 75.8 249.1 77.2 249.1 78.7Z" fill="white"/>
<path d="M255.1 81.7C255.1 83.2 255.1 84.7 253.6 84.7C252.1 84.7 250.6 83.2 250.6 81.7C250.6 81.7 252.1 80.2 253.6 80.2C255.1 80.2 255.1 81.7 255.1 81.7Z" fill="white"/>
<path d="M246.1 90.7C246.1 90.7 244.6 92.2 243.1 92.2L241.6 90.7C241.6 89.2 243.1 87.7 243.1 87.7C244.6 87.7 246.1 89.2 246.1 90.7Z" fill="white"/>
<path d="M196.6 125.2C196.6 125.2 196.6 126.7 195.1 126.7C193.6 126.7 193.6 125.2 193.6 125.2C193.6 123.7 193.6 122.2 195.1 122.2C196.6 122.2 196.6 123.7 196.6 125.2Z" fill="white"/>
<path d="M205.6 135.7C205.6 137.2 205.6 137.2 204.1 137.2C202.6 137.2 202.6 137.2 202.6 135.7C202.6 134.2 202.6 132.7 204.1 132.7C205.6 132.7 205.6 134.2 205.6 135.7Z" fill="white"/>
<path d="M199.6 312.6C199.6 314.1 198.1 315.6 196.6 315.6C195.1 315.6 195.1 314.1 195.1 312.6C195.1 311.1 195.1 311.1 196.6 311.1C198.1 311.1 199.6 311.1 199.6 312.6Z" fill="white"/>
<path d="M201.1 362.1C201.1 363.6 199.6 365.1 198.1 365.1C196.6 365.1 195.1 363.6 195.1 362.1C195.1 360.6 196.6 359.1 198.1 359.1C199.6 359.1 201.1 360.6 201.1 362.1Z" fill="white"/>
<path d="M172.6 387.6L171.1 389.1C169.6 389.1 168.1 387.6 168.1 387.6C168.1 386.1 169.6 384.6 171.1 384.6C171.1 384.6 172.6 386.1 172.6 387.6Z" fill="white"/>
<path d="M139.6 396.6C139.6 398.1 138.1 399.6 136.6 399.6C135.1 399.6 133.6 398.1 133.6 396.6C133.6 395.1 135.1 395.1 136.6 395.1C138.1 395.1 139.6 395.1 139.6 396.6Z" fill="white"/>
<path d="M132.1 374.1C132.1 375.6 130.6 377.1 130.6 377.1C129.1 377.1 127.6 375.6 127.6 374.1C127.6 372.6 129.1 372.6 130.6 372.6C130.6 372.6 132.1 372.6 132.1 374.1Z" fill="white"/>
<path d="M129.2 389.1C129.2 390.6 127.7 390.6 126.2 390.6C124.7 390.6 124.7 390.6 124.7 389.1C124.7 387.6 124.7 386.1 126.2 386.1C127.7 386.1 129.2 387.6 129.2 389.1Z" fill="white"/>
<path d="M103.7 377.1C103.7 378.6 102.2 378.6 102.2 378.6C100.7 378.6 99.2 378.6 99.2 377.1C99.2 375.6 100.7 374.1 102.2 374.1C102.2 374.1 103.7 375.6 103.7 377.1Z" fill="white"/>
<path d="M190.6 417.5C190.6 419 189.1 419 189.1 419C187.6 419 186.1 419 186.1 417.5C186.1 416 187.6 414.5 189.1 414.5C189.1 414.5 190.6 416 190.6 417.5Z" fill="white"/>
<path d="M216.1 398.1C216.1 399.6 216.1 401.1 214.6 401.1C213.1 401.1 211.6 399.6 211.6 398.1C211.6 396.6 213.1 395.1 214.6 395.1C216.1 395.1 216.1 396.6 216.1 398.1Z" fill="white"/>
<path d="M219.1 422C219.1 423.5 219.1 425 217.6 425C216.1 425 216.1 423.5 216.1 422C216.1 422 216.1 420.5 217.6 420.5C219.1 420.5 219.1 422 219.1 422Z" fill="white"/>
<path d="M327 399.6C327 401.1 327 401.1 325.5 401.1C324 401.1 322.5 401.1 322.5 399.6C322.5 398.1 324 396.6 325.5 396.6C327 396.6 327 398.1 327 399.6Z" fill="white"/>
<path d="M277.6 417.5C277.6 417.5 276.1 419 274.6 419L273.1 417.5C273.1 416 274.6 414.5 274.6 414.5C276.1 414.5 277.6 416 277.6 417.5Z" fill="white"/>
<path d="M412.5 443C412.5 443 411 444.5 409.5 444.5L408 443C408 441.5 409.5 440 409.5 440C411 440 412.5 441.5 412.5 443Z" fill="white"/>
<path d="M423 342.6C423 344.1 421.5 345.6 420 345.6C418.5 345.6 418.5 344.1 418.5 342.6C418.5 341.1 418.5 341.1 420 341.1C421.5 341.1 423 341.1 423 342.6Z" fill="white"/>
<path d="M402 357.6C402 359.1 402 359.1 400.5 359.1C399 359.1 397.5 359.1 397.5 357.6C397.5 356.1 399 354.6 400.5 354.6C402 354.6 402 356.1 402 357.6Z" fill="white"/>
<path d="M423 360.6C423 362.1 421.5 363.6 420 363.6C418.5 363.6 417 362.1 417 360.6C417 359.1 418.5 359.1 420 359.1C421.5 359.1 423 359.1 423 360.6Z" fill="white"/>
<path d="M402 386.1C402 387.6 402 389.1 400.5 389.1C399 389.1 397.5 387.6 397.5 386.1C397.5 384.6 399 384.6 400.5 384.6C402 384.6 402 384.6 402 386.1Z" fill="white"/>
<path d="M454.4 329.1C454.4 330.6 454.4 330.6 452.9 330.6C451.4 330.6 451.4 330.6 451.4 329.1C451.4 327.6 451.4 327.6 452.9 327.6C454.4 327.6 454.4 327.6 454.4 329.1Z" fill="white"/>
<path d="M460.4 341.1C460.4 342.6 458.9 344.1 457.4 344.1C455.9 344.1 454.4 342.6 454.4 341.1C454.4 341.1 455.9 339.6 457.4 339.6C458.9 339.6 460.4 341.1 460.4 341.1Z" fill="white"/>
<path d="M496.4 357.6C496.4 359.1 494.9 359.1 493.4 359.1C491.9 359.1 490.4 359.1 490.4 357.6C490.4 356.1 491.9 354.6 493.4 354.6C494.9 354.6 496.4 356.1 496.4 357.6Z" fill="white"/>
<path d="M458.9 384.6C458.9 384.6 458.9 386.1 457.4 386.1C455.9 386.1 455.9 384.6 455.9 384.6C455.9 383.1 455.9 381.6 457.4 381.6C458.9 381.6 458.9 383.1 458.9 384.6Z" fill="white"/>
<path d="M482.9 362.1C482.9 363.6 481.4 363.6 479.9 363.6C479.9 363.6 478.4 363.6 478.4 362.1C478.4 360.6 479.9 360.6 479.9 360.6C481.4 360.6 482.9 360.6 482.9 362.1Z" fill="white"/>
<path d="M478.4 396.6L476.9 398.1C475.4 398.1 473.9 396.6 473.9 396.6C473.9 395.1 475.4 393.6 476.9 393.6C476.9 393.6 478.4 395.1 478.4 396.6Z" fill="white"/>
<path d="M337.5 50.2999C337.5 48.7999 339 48.7999 340.5 47.2999C340.5 42.7999 340.5 42.7999 340.5 42.7999C342 47.2999 342 47.2999 342 47.2999C343.5 48.7999 345 48.7999 345 50.2999C351 51.7999 351 51.7999 351 51.7999C345 53.2999 345 53.2999 345 53.2999C345 53.2999 343.5 54.7999 342 54.7999C340.5 60.7999 340.5 60.7999 340.5 60.7999C340.5 54.7999 340.5 54.7999 340.5 54.7999C339 54.7999 337.5 53.2999 337.5 51.7999C333 51.7999 333 51.7999 333 51.7999C337.5 50.2999 337.5 50.2999 337.5 50.2999Z" fill="white"/>
<path d="M192.1 447.5C193.6 446 193.6 444.5 195.1 444.5C196.6 438.5 196.6 438.5 196.6 438.5C198.1 444.5 198.1 444.5 198.1 444.5C198.1 444.5 199.6 446 199.6 447.5C205.6 447.5 205.6 447.5 205.6 447.5C199.6 449 199.6 449 199.6 449C199.6 450.5 198.1 450.5 196.6 452C196.6 456.5 196.6 456.5 196.6 456.5C195.1 452 195.1 452 195.1 452C193.6 450.5 193.6 450.5 192.1 449C187.6 447.5 187.6 447.5 187.6 447.5C192.1 447.5 192.1 447.5 192.1 447.5Z" fill="white"/>
<path d="M458.9 395.1C458.9 395.1 460.4 393.6 461.9 393.6C463.4 387.6 463.4 387.6 463.4 387.6C463.4 393.6 463.4 393.6 463.4 393.6C464.9 393.6 466.4 395.1 466.4 396.6C472.4 396.6 472.4 396.6 472.4 396.6C466.4 398.1 466.4 398.1 466.4 398.1C466.4 399.6 464.9 399.6 463.4 401.1C463.4 405.6 463.4 405.6 463.4 405.6C461.9 399.6 461.9 399.6 461.9 399.6C460.4 399.6 458.9 399.6 458.9 398.1C454.4 396.6 454.4 396.6 454.4 396.6C458.9 395.1 458.9 395.1 458.9 395.1Z" fill="white"/>
<path d="M479.9 338.1C481.4 338.1 481.4 336.6 482.9 336.6C484.4 330.6 484.4 330.6 484.4 330.6C484.4 336.6 484.4 336.6 484.4 336.6C485.9 336.6 487.4 338.1 487.4 339.6C493.4 339.6 493.4 339.6 493.4 339.6C487.4 341.1 487.4 341.1 487.4 341.1C487.4 342.6 485.9 342.6 484.4 344.1C484.4 348.6 484.4 348.6 484.4 348.6C482.9 342.6 482.9 342.6 482.9 342.6C481.4 342.6 479.9 342.6 479.9 341.1C475.4 339.6 475.4 339.6 475.4 339.6C479.9 338.1 479.9 338.1 479.9 338.1Z" fill="white"/>
<path d="M219.1 128.2C219.1 126.7 220.6 126.7 222.1 125.2C222.1 120.7 222.1 120.7 222.1 120.7C223.6 125.2 223.6 125.2 223.6 125.2C225.1 126.7 225.1 126.7 226.6 128.2C231.1 129.7 231.1 129.7 231.1 129.7C225.1 129.7 225.1 129.7 225.1 129.7C225.1 131.2 225.1 132.7 223.6 132.7C222.1 138.7 222.1 138.7 222.1 138.7C220.6 132.7 220.6 132.7 220.6 132.7C220.6 132.7 219.1 131.2 219.1 129.7C213.1 129.7 213.1 129.7 213.1 129.7C219.1 128.2 219.1 128.2 219.1 128.2Z" fill="white"/>
<path d="M201.1 248.2C220.6 281.2 243.1 306.7 261.1 329.2C276.1 350.2 307.6 360.7 297.1 369.7C285.1 380.2 255.1 332.2 255.1 332.2C235.6 308.2 216.1 282.7 196.6 249.7C201.1 248.2 201.1 248.2 201.1 248.2Z" fill="white"/>
<path d="M0.199951 335.1C91.6 275.1 253.5 236.2 385.5 183.7C485.9 143.2 574.4 93.6999 623.8 24.7999C500.9 272.1 162.1 243.6 6.19995 338.1C0.199952 335.1 0.199951 335.1 0.199951 335.1Z" fill="#FF8387"/>
<path d="M214.6 212.2H259.6L294.1 296.2L304.6 306.7H244.6L255.1 296.2L252.1 285.7H217.6L214.6 297.7L222.1 306.7H192.1L202.6 296.2L223.6 222.8L214.6 212.2ZM246.1 270.6L232.6 237.6L222.1 270.6H246.1Z" fill="white"/>
<path d="M429 212.2H475.5L510 296.2L520.5 306.7H460.5L471 296.2L468 285.7H433.5L430.5 297.7L438 306.7H408L418.5 296.2L439.5 222.8L429 212.2ZM461.9 270.6L448.4 237.6L437.9 270.6H461.9Z" fill="white"/>
<path d="M151.6 270.6C151.6 267.6 151.6 222.6 151.6 222.6C142.6 212.1 142.6 212.1 142.6 212.1C174.1 212.1 174.1 212.1 174.1 212.1C165.1 222.6 165.1 222.6 165.1 222.6C165.1 296 165.1 296 165.1 296C175.6 306.5 175.6 306.5 175.6 306.5C133.6 306.5 133.6 306.5 133.6 306.5C97.6 245 97.6 245 97.6 245C97.6 248 97.6 296 97.6 296C106.6 306.5 106.6 306.5 106.6 306.5C73.6 306.5 73.6 306.5 73.6 306.5C84.1 296 84.1 296 84.1 296C84.1 222.6 84.1 222.6 84.1 222.6C75.1 212.1 75.1 212.1 75.1 212.1C117.1 212.1 117.1 212.1 117.1 212.1C151.6 270.6 151.6 270.6 151.6 270.6Z" fill="white"/>
<path d="M393 236.2C391.5 207.7 391.5 207.7 391.5 207.7C382.5 213.7 382.5 213.7 382.5 213.7C369 209.2 352.5 209.2 340.5 215.2C330 219.7 318 230.2 319.5 245.2C321 260.2 333 266.2 343.5 270.7C357 276.7 372 279.7 372 287.2C372 293.2 363 296.2 357 296.2C351 296.2 330 294.7 319.5 282.7C322.5 312.7 322.5 312.7 322.5 312.7C333 305.2 333 305.2 333 305.2C346.5 309.7 363 311.2 378 306.7C393 302.2 408 290.2 399 267.7C396 258.7 385.5 252.7 379.5 249.7C373.5 248.2 357 240.7 352.5 239.2C346.5 236.2 346.5 225.7 360 224.2C372 222.7 390 233.2 393 236.2Z" fill="white"/>
<path d="M72.2 480.5C256.6 291.6 532.4 204.7 623.9 24.7999C568.4 200.2 273.1 296.1 70.7 489.5C72.2 480.5 72.2 480.5 72.2 480.5Z" fill="#FF8387"/>
<path d="M196.6 249.7C195.1 246.7 192.1 242.2 190.6 239.2C141.1 149.3 148.6 59.3001 237.1 98.3001C313.5 132.8 385.5 225.7 414 293.2C427.5 323.2 463.5 444.6 348 395.1C457.4 440.1 438 326.1 379.5 237.7C346.5 188.2 303.1 146.2 276.1 126.8C184.6 60.8001 129.2 101.3 192.1 231.7C195.1 237.7 198.1 242.2 201.1 248.2C196.6 249.7 196.6 249.7 196.6 249.7Z" fill="white"/>
</svg>
