<svg width="512" height="512" viewBox="0 0 512 512" fill="none" xmlns="http://www.w3.org/2000/svg">
<path d="M450.64 39.6799C481.38 70.4399 468.41 126.14 433.21 186.98V186.99C421.945 206.25 409.553 224.829 396.1 242.63L396.09 242.64C390.76 235.046 382.954 229.545 374.01 227.08C393.03 201.73 408.5 177.32 419.77 155.13C442.29 110.74 447.99 75.2199 431.56 58.7699C415.13 42.3199 379.62 48.0299 335.26 70.5799C325.062 65.1822 314.416 60.6786 303.44 57.1199C364.24 21.8999 419.9 8.9099 450.64 39.6799Z" fill="#FFE578"/>
<path d="M433.21 186.99C444.79 222.525 446.313 260.571 437.61 296.918C428.907 333.265 410.317 366.495 383.899 392.931C357.48 419.368 324.262 437.98 287.921 446.707C251.58 455.434 213.533 453.936 177.99 442.38C225.46 414.89 276.06 373.84 320.39 329.48C329.32 320.55 338.11 311.36 346.68 302V301.99C353.905 305.31 361.955 306.402 369.803 305.126C377.651 303.85 384.941 300.265 390.743 294.827C396.544 289.39 400.593 282.347 402.374 274.598C404.155 266.848 403.586 258.744 400.74 251.32C399.562 248.242 397.999 245.326 396.09 242.64L396.1 242.63C409.553 224.829 421.945 206.25 433.21 186.99Z" fill="#A0EAEA"/>
<path d="M48.69 313.95C36.8067 278.38 35.0311 240.21 43.5608 203.691C52.0905 167.171 70.5907 133.737 97.0007 107.111C123.411 80.4854 156.694 61.7139 193.143 52.8875C229.591 44.0611 267.775 45.5264 303.44 57.12C314.416 60.6787 325.062 65.1823 335.26 70.58C371.246 89.6821 400.679 119.133 419.76 155.13H419.77C408.5 177.32 393.03 201.73 374.01 227.08C366.601 225.055 358.766 225.204 351.44 227.511C344.114 229.817 337.607 234.183 332.695 240.088C327.782 245.992 324.673 253.185 323.738 260.809C322.803 268.432 324.081 276.163 327.42 283.08C319.08 292.19 310.377 301.29 301.31 310.38C247.66 364.06 192.15 405.54 146.17 428.91C110.181 409.811 80.7489 380.355 61.68 344.35C56.5187 334.592 52.1739 324.424 48.69 313.95Z" fill="#A0EAEA"/>
<path d="M400.74 251.32C404.435 260.872 404.347 271.474 400.495 280.963C396.643 290.453 389.316 298.116 380.009 302.389C370.702 306.663 360.115 307.226 350.407 303.962C340.699 300.699 332.601 293.856 327.765 284.828C322.928 275.801 321.718 265.268 324.379 255.378C327.041 245.489 333.375 236.987 342.089 231.606C350.804 226.225 361.242 224.371 371.276 226.421C381.311 228.472 390.185 234.272 396.09 242.64C397.999 245.326 399.562 248.243 400.74 251.32Z" fill="#A0EAEA"/>
<path d="M346.68 301.99V302C338.11 311.36 329.32 320.55 320.39 329.48C276.06 373.84 225.46 414.89 177.99 442.38C117.19 477.6 61.5401 490.58 30.7901 459.82C0.800051 429.8 15.4101 373.07 48.6901 313.95C52.174 324.424 56.5188 334.592 61.6801 344.35C39.1401 388.75 33.4501 424.28 49.8801 440.72C66.3101 457.16 101.81 451.46 146.17 428.91C192.15 405.54 247.66 364.06 301.31 310.38C310.37 301.31 319.073 292.21 327.42 283.08C331.462 291.419 338.268 298.101 346.68 301.99Z" fill="#FFE578"/>
<path d="M328 302V283L375 227L396 222V242L347 302H328Z" fill="#FFE578"/>
<path d="M127.59 392.98C113.252 378.66 101.147 362.267 91.6801 344.35C86.5188 334.592 82.174 324.424 78.6901 313.95C68.9237 284.708 65.9599 253.623 70.0245 223.063C74.089 192.503 85.0747 163.273 102.145 137.6C119.215 111.928 141.918 90.4899 168.527 74.9194C195.136 59.3488 224.947 50.0564 255.69 47.75C209.315 44.386 163.195 57.0729 125.065 83.6823C86.9357 110.292 59.1172 149.205 46.2768 193.893C33.4363 238.581 36.3551 286.326 54.5435 329.117C72.7319 371.909 105.083 407.143 146.17 428.91C151.252 426.327 156.447 423.521 161.756 420.492C149.408 412.581 137.952 403.357 127.59 392.98Z" fill="#81CCCA"/>
<path d="M123.132 373.416C122.344 373.417 121.563 373.262 120.834 372.96C120.106 372.658 119.445 372.215 118.888 371.657C109.247 362.017 100.779 351.272 93.658 339.646C93.2469 338.974 92.9722 338.227 92.8497 337.449C92.7271 336.67 92.7591 335.875 92.9437 335.109C93.1284 334.343 93.4621 333.621 93.9258 332.984C94.3896 332.347 94.9743 331.808 95.6465 331.397C96.3187 330.985 97.0654 330.711 97.8437 330.588C98.6221 330.466 99.417 330.498 100.183 330.682C100.949 330.867 101.671 331.201 102.308 331.664C102.945 332.128 103.485 332.713 103.896 333.385C110.523 344.204 118.404 354.203 127.376 363.174C128.215 364.013 128.786 365.082 129.018 366.246C129.249 367.41 129.13 368.617 128.676 369.713C128.221 370.809 127.452 371.746 126.465 372.405C125.479 373.064 124.319 373.416 123.132 373.416Z" fill="#68B5B1"/>
<path d="M79.933 298.337C78.608 298.336 77.3205 297.897 76.2713 297.088C75.2221 296.279 74.4702 295.145 74.133 293.864C65.4346 260.997 66.6418 226.293 77.603 194.11C78.1151 192.603 79.2048 191.362 80.6323 190.658C82.0599 189.955 83.7083 189.848 85.215 190.36C86.7217 190.872 87.9632 191.962 88.6665 193.389C89.3698 194.817 89.4771 196.465 88.965 197.972C78.7643 227.923 77.6412 260.22 85.737 290.807C85.9698 291.695 85.9959 292.625 85.8132 293.525C85.6306 294.425 85.2441 295.271 84.6834 295.998C84.1227 296.725 83.4028 297.314 82.5789 297.72C81.7551 298.125 80.8492 298.336 79.931 298.337H79.933Z" fill="#68B5B1"/>
<path d="M498.5 78.8001C496.922 78.8002 495.408 78.1788 494.285 77.0704C493.162 75.962 492.521 74.4558 492.5 72.8781C492.193 49.1651 484.818 29.9181 470.581 15.6701C470.017 15.1144 469.568 14.4525 469.261 13.7225C468.953 12.9925 468.793 12.2089 468.791 11.4168C468.788 10.6248 468.942 9.84001 469.243 9.10775C469.545 8.37549 469.989 7.71025 470.549 7.15039C471.11 6.59053 471.775 6.14714 472.508 5.84579C473.24 5.54444 474.025 5.39109 474.817 5.39459C475.609 5.39809 476.393 5.55837 477.122 5.86619C477.852 6.17401 478.514 6.62327 479.069 7.18806C495.594 23.7211 504.15 45.7711 504.5 72.7201C504.51 73.5079 504.365 74.2901 504.073 75.0219C503.781 75.7537 503.347 76.4207 502.798 76.985C502.248 77.5493 501.592 77.9998 500.868 78.3107C500.144 78.6216 499.366 78.7869 498.578 78.7971L498.5 78.8001Z" fill="#CCD3DF"/>
<path d="M487.811 139.536C486.863 139.534 485.93 139.308 485.086 138.877C484.243 138.445 483.513 137.82 482.957 137.053C482.401 136.285 482.035 135.398 481.888 134.461C481.741 133.525 481.817 132.568 482.111 131.667C484.071 125.681 485.778 119.767 487.186 114.092C487.569 112.547 488.55 111.218 489.914 110.397C491.277 109.576 492.91 109.33 494.455 109.713C496 110.096 497.329 111.077 498.15 112.441C498.971 113.804 499.217 115.437 498.834 116.982C497.356 122.94 495.566 129.137 493.516 135.401C493.123 136.604 492.359 137.651 491.334 138.394C490.31 139.137 489.077 139.536 487.811 139.536Z" fill="#CCD3DF"/>
</svg>
