<svg width="515" height="124" viewBox="0 0 515 124" fill="none" xmlns="http://www.w3.org/2000/svg">
<g filter="url(#filter0_d)">
<path d="M24.1443 41.8029C31.9495 17.1706 55.3799 0.896427 81.1873 2.18241L471.246 21.6191C493.515 22.7287 511 41.1071 511 63.403V63.403C511 86.0658 492.955 104.608 470.3 105.223L79.9014 115.829C40.8053 116.891 12.3304 79.0864 24.1443 41.8029V41.8029Z" fill="#E9686A"/>
<path d="M81.3125 51.5625C81.75 59.9167 81.9167 67.0938 81.8125 73.0938C81.5 74.8229 80.8125 75.9375 79.75 76.4375C78.6875 76.9167 77.3125 77.0521 75.625 76.8438C73.9375 76.6354 73.0938 75.5312 73.0938 73.5312C73.0938 71.5312 72.9896 68.3229 72.7812 63.9062C72.5729 59.4688 72.0833 52.7917 71.3125 43.875C61.5208 44.125 55.5312 44.4167 53.3438 44.75C52.8021 56.8542 52.5 64.4688 52.4375 67.5938C52.375 70.6979 52.2604 73.3542 52.0938 75.5625C51.9271 77.75 51.4479 79.0729 50.6562 79.5312C49.8854 79.9688 48.2917 80.3958 45.875 80.8125C43.4792 81.2292 42.1875 80.9062 42 79.8438C41.8333 78.7604 41.8021 77.2396 41.9062 75.2812C42.0104 73.3021 42.0729 71.6875 42.0938 70.4375C42.1354 69.1875 42.2188 67.625 42.3438 65.75C42.4896 63.8542 42.5625 62.0417 42.5625 60.3125C42.5625 58.5625 42.3646 52.8542 41.9688 43.1875C36.5104 43.5417 33.6667 42.6979 33.4375 40.6562C33.2292 38.6146 33.2812 36.8333 33.5938 35.3125C33.9062 33.7708 35.5104 32.7917 38.4062 32.375C41.3021 31.9583 45.3333 31.8854 50.5 32.1562C55.6875 32.4062 66.3646 32.8646 82.5312 33.5312C83.4271 33.5312 84.1667 33.8229 84.75 34.4062C85.3542 34.9896 85.7604 36.0312 85.9688 37.5312C86.1771 39.0104 85.6458 40.4271 84.375 41.7812C83.1042 43.1354 82.0938 43.75 81.3438 43.625C80.5938 43.4792 80.5833 46.125 81.3125 51.5625ZM116.281 88.875C111.115 89.7292 107.021 90.2604 104 90.4688L104.469 95.0625C104.677 98.6458 104.146 100.5 102.875 100.625C101.604 100.75 100.188 100.812 98.625 100.812C97.3125 100.917 95.9792 100.896 94.625 100.75C93.2917 100.604 92.6354 99.5833 92.6562 97.6875C92.5312 79.6458 92.3542 67.4688 92.125 61.1562C91.8958 54.8229 92.2188 50.0625 93.0938 46.875C94.2604 45.9792 95.5833 45.4271 97.0625 45.2188C98.5625 44.9896 99.75 44.9688 100.625 45.1562C101.5 45.3438 102.073 45.8125 102.344 46.5625C102.615 47.2917 103.792 47.375 105.875 46.8125C107.958 46.25 110.5 46.4062 113.5 47.2812C116.521 48.1562 119.896 50.5208 123.625 54.375C125.542 58.5208 126.562 62.9479 126.688 67.6562C126.833 72.3646 126.396 76.3646 125.375 79.6562C124.354 82.9271 121.323 86 116.281 88.875ZM102.5 74.5C104.458 79.1458 107.052 81.3438 110.281 81.0938C113.302 81.0729 115.698 79.3125 117.469 75.8125C119.26 72.3125 119.781 68.2396 119.031 63.5938C118.24 60.0104 116.448 57.6146 113.656 56.4062C110.865 55.1771 108.354 55.2188 106.125 56.5312C103.896 57.8229 102.469 59.9792 101.844 63C101.219 66 101.438 69.8333 102.5 74.5ZM159.156 57.6562C161.844 63.9688 161.688 69.9062 158.688 75.4688C155.688 81.0312 151.188 83.9062 145.188 84.0938C139.208 84.2812 134.552 83.0938 131.219 80.5312C127.885 77.9688 126.125 74.3333 125.938 69.625C125.75 64.8958 126.76 60.1979 128.969 55.5312C131.177 50.8438 136.083 48.4479 143.688 48.3438C151.312 48.2396 156.469 51.3438 159.156 57.6562ZM153.281 64.9375C153.094 62.625 152.073 60.75 150.219 59.3125C148.365 57.875 145.823 57.3438 142.594 57.7188C139.385 58.0938 137.229 59.3125 136.125 61.375C135.042 63.4167 134.646 65.7083 134.938 68.25C135.229 70.7917 136.229 72.6354 137.938 73.7812C139.646 74.9062 141.74 75.4479 144.219 75.4062C146.719 75.3646 148.896 74.1875 150.75 71.875C152.625 69.5625 153.469 67.25 153.281 64.9375ZM196.156 80.7812C194.677 80.7812 193.76 80.3958 193.406 79.625C193.073 78.8542 192.885 78.0104 192.844 77.0938C192.823 76.1562 192.812 73.0833 192.812 67.875C187.417 71.5417 183.594 74.4896 181.344 76.7188C179.115 78.9271 177.365 80.625 176.094 81.8125C174.823 83 173.312 83.625 171.562 83.6875C169.812 83.7708 168.625 83.5521 168 83.0312C167.375 82.5312 166.969 80.4688 166.781 76.8438C166.615 73.1979 166.396 67.5938 166.125 60.0312C165.875 52.4479 167.375 48.6979 170.625 48.7812C173.896 48.8438 175.646 49.5104 175.875 50.7812C176.271 52.9062 176.417 55.5312 176.312 58.6562L176.25 65.125L192 51.4062C193.875 50.1146 195.365 49.3646 196.469 49.1562C197.635 49.0104 198.604 49.125 199.375 49.5C200.146 49.8542 200.635 51 200.844 52.9375C201.073 54.8542 201.156 58.1771 201.094 62.9062C201.031 67.6354 200.979 71.5833 200.938 74.75C200.896 77.9167 200.427 79.7396 199.531 80.2188C198.656 80.6771 197.531 80.8646 196.156 80.7812ZM190.531 35.9688C191.427 36.7396 192.25 37.5521 193 38.4062C193.771 39.2604 192.51 40.8542 189.219 43.1875C185.948 45.5 182.385 46.5833 178.531 46.4375C174.698 46.2708 171.823 45.0104 169.906 42.6562C167.99 40.2812 166.792 37.75 166.312 35.0625C166.021 33.7083 166.802 32.6667 168.656 31.9375C170.531 31.2083 172.01 31.75 173.094 33.5625C174.198 35.3542 175.292 36.4896 176.375 36.9688C177.458 37.4479 179.271 37.6667 181.812 37.625C184.375 37.5833 186.292 37.0417 187.562 36C188.833 34.9583 189.823 34.9479 190.531 35.9688ZM223.156 58.1562C222.969 67.3021 222.875 73.8333 222.875 77.75C223.396 82 222.396 84.2083 219.875 84.375C217.375 84.5625 215.885 84.2708 215.406 83.5C214.948 82.75 214.76 81.2188 214.844 78.9062C214.948 76.5938 215.083 69.875 215.25 58.75C211.312 58.7083 208.74 58.5104 207.531 58.1562C206.344 57.8021 205.729 56.8229 205.688 55.2188C205.646 53.6146 205.792 52.1042 206.125 50.6875C206.479 49.25 213.688 48.6771 227.75 48.9688C229.292 48.9688 230.698 49.0625 231.969 49.25C233.26 49.4167 233.854 50.2188 233.75 51.6562C233.646 53.0938 233.427 54.3125 233.094 55.3125C232.781 56.3125 232.146 57.0312 231.188 57.4688C230.25 57.9062 227.573 58.1354 223.156 58.1562ZM266.531 80.7812C265.052 80.7812 264.135 80.3958 263.781 79.625C263.448 78.8542 263.26 78.0104 263.219 77.0938C263.198 76.1562 263.188 73.0833 263.188 67.875C257.792 71.5417 253.969 74.4896 251.719 76.7188C249.49 78.9271 247.74 80.625 246.469 81.8125C245.198 83 243.688 83.625 241.938 83.6875C240.188 83.7708 239 83.5521 238.375 83.0312C237.75 82.5312 237.344 80.4688 237.156 76.8438C236.99 73.1979 236.771 67.5938 236.5 60.0312C236.25 52.4479 237.75 48.6979 241 48.7812C244.271 48.8438 246.021 49.5104 246.25 50.7812C246.646 52.9062 246.792 55.5312 246.688 58.6562L246.625 65.125L262.375 51.4062C264.25 50.1146 265.74 49.3646 266.844 49.1562C268.01 49.0104 268.979 49.125 269.75 49.5C270.521 49.8542 271.01 51 271.219 52.9375C271.448 54.8542 271.531 58.1771 271.469 62.9062C271.406 67.6354 271.354 71.5833 271.312 74.75C271.271 77.9167 270.802 79.7396 269.906 80.2188C269.031 80.6771 267.906 80.8646 266.531 80.7812ZM301.188 56.75C299.812 56.25 298.76 55.0625 298.031 53.1875C297.323 51.3125 298.375 49.875 301.188 48.875C304.021 47.8542 306.885 48.1458 309.781 49.75C312.677 51.3333 314.354 53.8646 314.812 57.3438C315.292 60.8021 314.406 63.4792 312.156 65.375C314.24 67.6458 315.094 70.25 314.719 73.1875C314.365 76.125 313.344 78.6146 311.656 80.6562C309.99 82.6771 307.375 83.7396 303.812 83.8438C300.271 83.9479 297.562 83.3021 295.688 81.9062C293.833 80.4896 293.062 79.0312 293.375 77.5312C293.708 76.0104 294.292 74.9271 295.125 74.2812C295.979 73.6146 297.062 73.7396 298.375 74.6562C299.688 75.5521 300.958 76.1458 302.188 76.4375C303.438 76.7292 304.51 76.4688 305.406 75.6562C306.302 74.8229 306.406 73.6354 305.719 72.0938C305.031 70.5521 304.094 69.6458 302.906 69.375C301.74 69.0833 301.333 67.9167 301.688 65.875C302.042 63.8333 302.635 62.6667 303.469 62.375C304.302 62.0833 305.094 61.6667 305.844 61.125C306.615 60.5625 306.667 59.5833 306 58.1875C305.354 56.7917 303.75 56.3125 301.188 56.75ZM347.25 86.0312C345.188 87.4479 343.302 86.6146 341.594 83.5312C339.135 85.2188 337.01 86.0312 335.219 85.9688C333.448 85.9271 331.333 85.5312 328.875 84.7812C326.417 84.0521 323.885 82.5417 321.281 80.25C318.906 77.5 317.823 73.3854 318.031 67.9062C318.469 62.7188 320.417 58.3333 323.875 54.75C327.354 51.1667 331.5 49.375 336.312 49.375C338.125 49.375 340.156 49.8438 342.406 50.7812C343.948 51.4896 345.083 52.3646 345.812 53.4062C346.562 54.4271 346.99 55.4271 347.094 56.4062C347.198 57.3854 347.365 58.7292 347.594 60.4375C347.823 62.1458 347.844 64.3542 347.656 67.0625C347.49 69.7708 347.562 71.9167 347.875 73.5C348.188 75.0625 348.51 76.5417 348.844 77.9375C349.198 79.3125 349.792 80.6875 350.625 82.0625C350.542 83.0208 350.26 83.7292 349.781 84.1875C349.323 84.6667 348.479 85.2812 347.25 86.0312ZM334.125 57.3125C331.062 58.6042 329.083 59.9792 328.188 61.4375C327.312 62.875 326.677 65.2604 326.281 68.5938C325.906 71.9271 326.792 74.2812 328.938 75.6562C331.083 77.0104 334.167 77.1354 338.188 76.0312C339.167 75.1146 339.781 73.9271 340.031 72.4688C340.802 68.4688 341.188 65.6771 341.188 64.0938C341.208 62.4896 341.135 61.3229 340.969 60.5938C340.802 59.8438 340.208 59.0729 339.188 58.2812C338.167 57.4896 336.479 57.1667 334.125 57.3125ZM373.656 69.25C368.969 69.3125 364.823 69.6875 361.219 70.375L360.25 78.375C360.25 80.5833 358.844 81.7083 356.031 81.75C353.219 81.7708 351.698 80.6667 351.469 78.4375C351.26 76.1875 351.177 71.4688 351.219 64.2812C351.281 57.0729 351.292 52.7188 351.25 51.2188C351.229 49.7188 351.771 48.6875 352.875 48.125C354 47.5417 355.177 47.3125 356.406 47.4375C357.656 47.5417 358.698 47.9583 359.531 48.6875C360.385 49.3958 360.719 52.5104 360.531 58.0312C364.927 59.3021 369.312 59.3333 373.688 58.125C373.688 51.7708 374.219 48.2292 375.281 47.5C376.365 46.75 377.531 46.4375 378.781 46.5625C380.031 46.6667 381.229 47.2604 382.375 48.3438C383.521 49.4062 383.99 52.2708 383.781 56.9375C383.594 61.6042 383.427 65.9583 383.281 70C383.135 74.0417 382.812 76.9479 382.312 78.7188C381.812 80.4688 380.865 81.2708 379.469 81.125C378.073 80.9583 376.875 80.7812 375.875 80.5938C374.875 80.3854 374.312 79.9167 374.188 79.1875C374.083 78.4375 373.906 75.125 373.656 69.25ZM420.406 57.6562C423.094 63.9688 422.938 69.9062 419.938 75.4688C416.938 81.0312 412.438 83.9062 406.438 84.0938C400.458 84.2812 395.802 83.0938 392.469 80.5312C389.135 77.9688 387.375 74.3333 387.188 69.625C387 64.8958 388.01 60.1979 390.219 55.5312C392.427 50.8438 397.333 48.4479 404.938 48.3438C412.562 48.2396 417.719 51.3438 420.406 57.6562ZM414.531 64.9375C414.344 62.625 413.323 60.75 411.469 59.3125C409.615 57.875 407.073 57.3438 403.844 57.7188C400.635 58.0938 398.479 59.3125 397.375 61.375C396.292 63.4167 395.896 65.7083 396.188 68.25C396.479 70.7917 397.479 72.6354 399.188 73.7812C400.896 74.9062 402.99 75.4479 405.469 75.4062C407.969 75.3646 410.146 74.1875 412 71.875C413.875 69.5625 414.719 67.25 414.531 64.9375ZM449.719 65.8438C450.573 66.6146 451.521 67.8438 452.562 69.5312C453.604 71.1979 454.052 73.6354 453.906 76.8438C453.781 80.0312 451.323 82.375 446.531 83.875C441.76 85.3958 437.406 85.9688 433.469 85.5938C429.552 85.2396 427.542 84.5208 427.438 83.4375C427.354 82.3542 427.271 77.5938 427.188 69.1562C427.125 60.6979 427.156 55.5625 427.281 53.75C427.406 51.9167 427.698 50.8021 428.156 50.4062C428.635 50.0104 429.635 49.6458 431.156 49.3125C432.677 48.9792 434.917 48.8542 437.875 48.9375C440.833 49 443.896 49.9896 447.062 51.9062C450.229 53.8021 451.823 56.2812 451.844 59.3438C451.885 62.4062 451.177 64.5729 449.719 65.8438ZM443.312 58.4688C443.167 57.3229 442.573 56.4479 441.531 55.8438C440.51 55.2396 439.219 54.9375 437.656 54.9375C436.094 54.9375 435.188 55.0938 434.938 55.4062C434.708 55.7188 434.594 56.2917 434.594 57.125C434.594 57.9375 434.625 58.7812 434.688 59.6562C434.771 60.5312 435.052 61.125 435.531 61.4375C436.01 61.7292 436.917 61.875 438.25 61.875C439.604 61.875 440.823 61.5938 441.906 61.0312C442.99 60.4688 443.458 59.6146 443.312 58.4688ZM440.875 77.875C445.667 76.625 447.562 74.9479 446.562 72.8438C445.583 70.7396 444.198 69.5208 442.406 69.1875C440.635 68.8542 438.958 68.6771 437.375 68.6562C435.792 68.6146 434.885 68.8958 434.656 69.5C434.427 70.1042 434.208 71.9583 434 75.0625C433.792 78.1667 436.083 79.1042 440.875 77.875ZM489.969 57.6562C492.656 63.9688 492.5 69.9062 489.5 75.4688C486.5 81.0312 482 83.9062 476 84.0938C470.021 84.2812 465.365 83.0938 462.031 80.5312C458.698 77.9688 456.938 74.3333 456.75 69.625C456.562 64.8958 457.573 60.1979 459.781 55.5312C461.99 50.8438 466.896 48.4479 474.5 48.3438C482.125 48.2396 487.281 51.3438 489.969 57.6562ZM484.094 64.9375C483.906 62.625 482.885 60.75 481.031 59.3125C479.177 57.875 476.635 57.3438 473.406 57.7188C470.198 58.0938 468.042 59.3125 466.938 61.375C465.854 63.4167 465.458 65.7083 465.75 68.25C466.042 70.7917 467.042 72.6354 468.75 73.7812C470.458 74.9062 472.552 75.4479 475.031 75.4062C477.531 75.3646 479.708 74.1875 481.562 71.875C483.438 69.5625 484.281 67.25 484.094 64.9375Z" fill="white"/>
</g>
<defs>
<filter id="filter0_d" x="17.4434" y="2.11133" width="497.556" height="121.74" filterUnits="userSpaceOnUse" color-interpolation-filters="sRGB">
<feFlood flood-opacity="0" result="BackgroundImageFix"/>
<feColorMatrix in="SourceAlpha" type="matrix" values="0 0 0 0 0 0 0 0 0 0 0 0 0 0 0 0 0 0 127 0"/>
<feOffset dy="4"/>
<feGaussianBlur stdDeviation="2"/>
<feColorMatrix type="matrix" values="0 0 0 0 0 0 0 0 0 0 0 0 0 0 0 0 0 0 0.25 0"/>
<feBlend mode="normal" in2="BackgroundImageFix" result="effect1_dropShadow"/>
<feBlend mode="normal" in="SourceGraphic" in2="effect1_dropShadow" result="shape"/>
</filter>
</defs>
</svg>
