<svg width="250" height="99" viewBox="0 0 250 99" fill="none" xmlns="http://www.w3.org/2000/svg">
<g filter="url(#filter0_d)">
<path d="M12.5679 25.6514C15.6789 10.9606 29.1727 0.833051 44.1477 1.94961L218.231 14.9295C233.89 16.0971 246 29.1432 246 44.8464V46.1947C246 62.2893 233.3 75.5163 217.219 76.17L38.5635 83.4324C19.0088 84.2273 3.94132 66.3882 7.99581 47.242L12.5679 25.6514Z" fill="#E9686A"/>
<path d="M49.7383 22.625C52.7174 22.3099 55.5677 22.3887 58.2891 22.8613C61.0247 23.334 63.2161 24.3867 64.8633 26.0195C66.5247 27.6523 67.3913 30.3307 67.4629 34.0547C67.5488 37.7786 66.8685 40.1491 65.4219 41.166C67.3411 42.9421 68.4798 44.9544 68.8379 47.2031C69.196 49.4375 69.0599 52.1445 68.4297 55.3242C67.8138 58.5039 64.9993 60.3516 59.9863 60.8672C54.9733 61.3971 51.0846 61.1895 48.3203 60.2441C45.5703 59.3132 43.9518 56.6133 43.4648 52.1445C42.9922 47.6758 43.2214 41.8893 44.1523 34.7852C45.0977 27.6667 46.9596 23.6133 49.7383 22.625ZM53.0039 30.1875L52.7031 36.1816C52.832 36.9551 53.6556 37.4349 55.1738 37.6211C56.7064 37.8073 58.0384 37.5781 59.1699 36.9336C60.3158 36.2891 60.8887 35.3151 60.8887 34.0117C60.8887 32.694 60.6309 31.5983 60.1152 30.7246C59.6139 29.8366 58.3965 29.2923 56.4629 29.0918C54.5436 28.877 53.3906 29.2422 53.0039 30.1875ZM58.2031 44.9688L53.8633 44.7539C52.8464 44.8971 52.2591 45.3268 52.1016 46.043C51.9583 46.7448 51.9154 48.5352 51.9727 51.4141C51.4284 52.6029 52.875 53.1829 56.3125 53.1543C59.75 53.1257 61.3971 51.901 61.2539 49.4805C61.125 47.0599 60.1081 45.556 58.2031 44.9688ZM86.498 41.2949C82.416 40.5645 79.4368 40.543 77.5605 41.2305C77.2025 49.9674 76.9518 54.9303 76.8086 56.1191C76.7513 56.8783 75.8275 57.2793 74.0371 57.3223C72.2467 57.3796 71.2656 56.957 71.0938 56.0547C70.9362 55.1523 70.8646 54.0137 70.8789 52.6387C70.8932 51.2637 70.8717 48.7715 70.8145 45.1621C70.7572 41.5527 70.7357 39.1751 70.75 38.0293C70.7786 36.8691 71.2227 35.9095 72.082 35.1504C72.9414 34.3913 74.6745 34.0404 77.2812 34.0977C79.9023 34.1406 82.7454 34.1549 85.8105 34.1406C88.8757 34.1263 90.7591 34.6849 91.4609 35.8164C92.1771 36.9336 92.5137 38.5378 92.4707 40.6289C92.4277 42.7057 92.4421 45.4701 92.5137 48.9219C92.5853 52.3594 92.5352 54.4935 92.3633 55.3242C92.1914 56.1549 91.9049 56.7708 91.5039 57.1719C91.1029 57.5729 90.2936 57.7806 89.0762 57.7949C87.873 57.8236 87.1283 57.623 86.8418 57.1934C86.5697 56.778 86.4336 56.1263 86.4336 55.2383C86.4336 54.3503 86.4551 49.7025 86.498 41.2949ZM106.221 58.5039C102.497 58.4466 99.7754 57.6087 98.0566 55.9902C96.209 53.9134 95.0632 51.2422 94.6191 47.9766C94.7194 44.2956 95.7435 41.0729 97.6914 38.3086C99.5104 35.7018 102.232 34.3053 105.855 34.1191C108.763 33.9186 110.926 34.4128 112.344 35.6016C114.678 36.6901 116.061 38.8457 116.49 42.0684C116.734 43.5579 116.218 44.8398 114.943 45.9141C109.3 49.681 104.996 50.9414 102.031 49.6953C101.874 51.7148 103.292 52.9609 106.285 53.4336C107.818 53.4336 109.221 53.1328 110.496 52.5312C111.742 51.4714 112.68 50.6693 113.311 50.125C113.955 49.5664 114.657 49.4089 115.416 49.6523C115.96 50.1393 116.376 50.5905 116.662 51.0059C116.963 51.4069 117.214 51.8796 117.414 52.4238C118.202 53.3262 116.676 54.8372 112.838 56.957C110.546 57.931 108.34 58.4466 106.221 58.5039ZM106.371 45.2051C111.212 43.9303 113.103 42.4837 112.043 40.8652C110.983 39.2324 109.236 38.7956 106.801 39.5547C104.38 40.3138 102.533 41.4453 101.258 42.9492C99.9831 44.4388 101.688 45.1908 106.371 45.2051ZM135.848 61.7266C132.296 62.3138 129.481 62.679 127.404 62.8223L127.727 65.9805C127.87 68.444 127.505 69.7188 126.631 69.8047C125.757 69.8906 124.783 69.9336 123.709 69.9336C122.807 70.0052 121.89 69.9909 120.959 69.8906C120.042 69.7904 119.591 69.0885 119.605 67.7852C119.52 55.3815 119.398 47.0098 119.24 42.6699C119.083 38.3158 119.305 35.043 119.906 32.8516C120.708 32.2357 121.618 31.8561 122.635 31.7129C123.666 31.5553 124.482 31.541 125.084 31.6699C125.686 31.7988 126.079 32.1211 126.266 32.6367C126.452 33.138 127.261 33.1953 128.693 32.8086C130.126 32.4219 131.873 32.5293 133.936 33.1309C136.012 33.7324 138.333 35.3581 140.896 38.0078C142.214 40.8581 142.916 43.9017 143.002 47.1387C143.102 50.3757 142.801 53.1257 142.1 55.3887C141.398 57.6374 139.314 59.75 135.848 61.7266ZM126.373 51.8438C127.719 55.0378 129.503 56.5488 131.723 56.377C133.799 56.3626 135.447 55.1523 136.664 52.7461C137.896 50.3398 138.254 47.5397 137.738 44.3457C137.194 41.8822 135.962 40.235 134.043 39.4043C132.124 38.5592 130.398 38.5879 128.865 39.4902C127.333 40.3783 126.352 41.8607 125.922 43.9375C125.492 46 125.643 48.6354 126.373 51.8438ZM153.873 58.5039C150.149 58.4466 147.428 57.6087 145.709 55.9902C143.861 53.9134 142.715 51.2422 142.271 47.9766C142.372 44.2956 143.396 41.0729 145.344 38.3086C147.163 35.7018 149.884 34.3053 153.508 34.1191C156.415 33.9186 158.578 34.4128 159.996 35.6016C162.331 36.6901 163.713 38.8457 164.143 42.0684C164.386 43.5579 163.87 44.8398 162.596 45.9141C156.952 49.681 152.648 50.9414 149.684 49.6953C149.526 51.7148 150.944 52.9609 153.938 53.4336C155.47 53.4336 156.874 53.1328 158.148 52.5312C159.395 51.4714 160.333 50.6693 160.963 50.125C161.607 49.5664 162.309 49.4089 163.068 49.6523C163.613 50.1393 164.028 50.5905 164.314 51.0059C164.615 51.4069 164.866 51.8796 165.066 52.4238C165.854 53.3262 164.329 54.8372 160.49 56.957C158.199 57.931 155.993 58.4466 153.873 58.5039ZM154.023 45.2051C158.865 43.9303 160.755 42.4837 159.695 40.8652C158.635 39.2324 156.888 38.7956 154.453 39.5547C152.033 40.3138 150.185 41.4453 148.91 42.9492C147.635 44.4388 149.34 45.1908 154.023 45.2051ZM148.137 23.8926C149.87 24.0072 150.837 24.8092 151.037 26.2988C151.238 27.7884 151.037 28.9128 150.436 29.6719C149.848 30.4167 148.645 30.7676 146.826 30.7246C145.021 30.6816 143.976 29.9798 143.689 28.6191C143.403 27.2585 143.639 26.0983 144.398 25.1387C145.172 24.179 146.418 23.7637 148.137 23.8926ZM160.748 23.5703C161.607 23.8997 162.216 24.3438 162.574 24.9023C162.932 25.4609 162.975 26.3418 162.703 27.5449C162.431 28.748 161.5 29.4284 159.91 29.5859C158.32 29.7435 157.103 29.4284 156.258 28.6406C155.427 27.8529 155.155 26.8216 155.441 25.5469C155.742 24.2578 156.487 23.5273 157.676 23.3555C158.865 23.1693 159.889 23.2409 160.748 23.5703ZM186.465 58.9551C186.465 58.7546 186.472 58.4108 186.486 57.9238C186.486 57.5085 186.486 57.2005 186.486 57C178.093 57 173.56 57.2363 172.887 57.709C173.044 60.8457 172.536 62.4499 171.361 62.5215C170.187 62.5931 169.07 62.6289 168.01 62.6289C166.964 62.6289 166.413 61.1107 166.355 58.0742C166.298 55.0521 166.549 53.3477 167.107 52.9609C167.68 52.5599 168.339 52.2806 169.084 52.123C170.617 45.6348 171.576 41.2663 171.963 39.0176C172.35 36.7689 172.858 35.3294 173.488 34.6992C174.118 34.0547 176.532 33.7467 180.729 33.7754C184.939 33.7897 187.26 34.2337 187.689 35.1074C188.119 35.9811 188.348 38.0365 188.377 41.2734C188.42 44.4961 188.298 48.041 188.012 51.9082C190.59 51.765 191.908 52.7962 191.965 55.002C192.022 57.2077 191.972 58.7331 191.814 59.5781C191.671 60.4232 191.277 60.9388 190.633 61.125C190.003 61.3112 189.115 61.347 187.969 61.2324C186.837 61.1178 186.336 60.3587 186.465 58.9551ZM180.191 37.9863C177.599 37.8717 176.031 39.6693 175.486 43.3789C174.942 47.0742 174.641 49.459 174.584 50.5332C174.527 51.5931 176.195 52.1016 179.59 52.0586C182.984 52.0156 184.567 50.4258 184.338 47.2891C184.123 44.138 184.023 41.832 184.037 40.3711C184.066 38.8958 182.784 38.1009 180.191 37.9863ZM203.223 24.9453L201.246 48.3418C201.246 49.6165 200.294 50.3327 198.389 50.4902C196.255 50.4043 195.03 48.8216 194.715 45.7422C194.414 42.6628 194.171 38.9603 193.984 34.6348C193.798 30.2949 193.755 26.9004 193.855 24.4512C193.97 22.002 195.746 20.8275 199.184 20.9277C201.977 21.3001 203.323 22.6393 203.223 24.9453ZM202.299 56.6133C202.127 57.2865 201.776 57.8809 201.246 58.3965C200.73 58.9264 200.021 59.263 199.119 59.4062C198.231 59.5495 197.322 59.3132 196.391 58.6973C195.474 58.0957 194.965 57.0501 194.865 55.5605C194.779 54.0566 195.309 53.1185 196.455 52.7461C197.615 52.3594 198.775 52.3021 199.936 52.5742C201.096 52.8464 201.826 53.4193 202.127 54.293C202.428 55.1667 202.485 55.9401 202.299 56.6133Z" fill="white"/>
</g>
<defs>
<filter id="filter0_d" x="3.33252" y="1.86572" width="246.668" height="89.5924" filterUnits="userSpaceOnUse" color-interpolation-filters="sRGB">
<feFlood flood-opacity="0" result="BackgroundImageFix"/>
<feColorMatrix in="SourceAlpha" type="matrix" values="0 0 0 0 0 0 0 0 0 0 0 0 0 0 0 0 0 0 127 0"/>
<feOffset dy="4"/>
<feGaussianBlur stdDeviation="2"/>
<feColorMatrix type="matrix" values="0 0 0 0 0 0 0 0 0 0 0 0 0 0 0 0 0 0 0.25 0"/>
<feBlend mode="normal" in2="BackgroundImageFix" result="effect1_dropShadow"/>
<feBlend mode="normal" in="SourceGraphic" in2="effect1_dropShadow" result="shape"/>
</filter>
</defs>
</svg>
