<svg width="515" height="124" viewBox="0 0 515 124" fill="none" xmlns="http://www.w3.org/2000/svg">
<g filter="url(#filter0_d)">
<path d="M490.856 76.1971C483.051 100.829 459.62 117.104 433.813 115.818L43.7537 96.3809C21.4854 95.2713 4.00002 76.8929 4.00002 54.597V54.597C4.00002 31.9342 22.0453 13.3921 44.6997 12.7767L435.099 2.17068C474.195 1.10856 502.67 38.9136 490.856 76.1971V76.1971Z" fill="#FFD042"/>
<path d="M45.9688 67.8125C43.7604 62.8542 41.1667 58.0938 38.1875 53.5312C35.2292 48.9479 33.4896 45.8854 32.9688 44.3438C32.4688 42.7812 32.7917 41.4583 33.9375 40.375C35.0833 39.2708 36.5729 38.5417 38.4062 38.1875C40.2396 37.8333 42.0208 38.4896 43.75 40.1562C45.4792 41.8021 48.0833 45.8125 51.5625 52.1875C54.5833 43.9792 56.9271 38.8542 58.5938 36.8125C60.2604 34.7708 61.8646 33.875 63.4062 34.125C64.9479 34.375 66.7396 35.3854 68.7812 37.1562C70.8438 38.9271 70.0833 43.4479 66.5 50.7188C62.9375 57.9688 59.1667 65.4271 55.1875 73.0938C51.2083 80.7396 46.5729 84.6562 41.2812 84.8438C35.9896 85.0521 33.1771 84.5625 32.8438 83.375C32.5312 82.1875 32.2396 80.6771 31.9688 78.8438C31.7188 76.9896 32.2083 75.6458 33.4375 74.8125C34.6875 73.9792 36.5521 73.4062 39.0312 73.0938C41.5104 72.7812 43.8229 71.0208 45.9688 67.8125ZM81.3125 56.75C79.9375 56.25 78.8854 55.0625 78.1562 53.1875C77.4479 51.3125 78.5 49.875 81.3125 48.875C84.1458 47.8542 87.0104 48.1458 89.9062 49.75C92.8021 51.3333 94.4792 53.8646 94.9375 57.3438C95.4167 60.8021 94.5312 63.4792 92.2812 65.375C94.3646 67.6458 95.2188 70.25 94.8438 73.1875C94.4896 76.125 93.4688 78.6146 91.7812 80.6562C90.1146 82.6771 87.5 83.7396 83.9375 83.8438C80.3958 83.9479 77.6875 83.3021 75.8125 81.9062C73.9583 80.4896 73.1875 79.0312 73.5 77.5312C73.8333 76.0104 74.4167 74.9271 75.25 74.2812C76.1042 73.6146 77.1875 73.7396 78.5 74.6562C79.8125 75.5521 81.0833 76.1458 82.3125 76.4375C83.5625 76.7292 84.6354 76.4688 85.5312 75.6562C86.4271 74.8229 86.5312 73.6354 85.8438 72.0938C85.1562 70.5521 84.2188 69.6458 83.0312 69.375C81.8646 69.0833 81.4583 67.9167 81.8125 65.875C82.1667 63.8333 82.7604 62.6667 83.5938 62.375C84.4271 62.0833 85.2188 61.6667 85.9688 61.125C86.7396 60.5625 86.7917 59.5833 86.125 58.1875C85.4792 56.7917 83.875 56.3125 81.3125 56.75ZM121.031 69.25C116.344 69.3125 112.198 69.6875 108.594 70.375L107.625 78.375C107.625 80.5833 106.219 81.7083 103.406 81.75C100.594 81.7708 99.0729 80.6667 98.8438 78.4375C98.6354 76.1875 98.5521 71.4688 98.5938 64.2812C98.6562 57.0729 98.6667 52.7188 98.625 51.2188C98.6042 49.7188 99.1458 48.6875 100.25 48.125C101.375 47.5417 102.552 47.3125 103.781 47.4375C105.031 47.5417 106.073 47.9583 106.906 48.6875C107.76 49.3958 108.094 52.5104 107.906 58.0312C112.302 59.3021 116.688 59.3333 121.062 58.125C121.062 51.7708 121.594 48.2292 122.656 47.5C123.74 46.75 124.906 46.4375 126.156 46.5625C127.406 46.6667 128.604 47.2604 129.75 48.3438C130.896 49.4062 131.365 52.2708 131.156 56.9375C130.969 61.6042 130.802 65.9583 130.656 70C130.51 74.0417 130.188 76.9479 129.688 78.7188C129.188 80.4688 128.24 81.2708 126.844 81.125C125.448 80.9583 124.25 80.7812 123.25 80.5938C122.25 80.3854 121.688 79.9167 121.562 79.1875C121.458 78.4375 121.281 75.125 121.031 69.25ZM163.562 86.0312C161.5 87.4479 159.615 86.6146 157.906 83.5312C155.448 85.2188 153.323 86.0312 151.531 85.9688C149.76 85.9271 147.646 85.5312 145.188 84.7812C142.729 84.0521 140.198 82.5417 137.594 80.25C135.219 77.5 134.135 73.3854 134.344 67.9062C134.781 62.7188 136.729 58.3333 140.188 54.75C143.667 51.1667 147.812 49.375 152.625 49.375C154.438 49.375 156.469 49.8438 158.719 50.7812C160.26 51.4896 161.396 52.3646 162.125 53.4062C162.875 54.4271 163.302 55.4271 163.406 56.4062C163.51 57.3854 163.677 58.7292 163.906 60.4375C164.135 62.1458 164.156 64.3542 163.969 67.0625C163.802 69.7708 163.875 71.9167 164.188 73.5C164.5 75.0625 164.823 76.5417 165.156 77.9375C165.51 79.3125 166.104 80.6875 166.938 82.0625C166.854 83.0208 166.573 83.7292 166.094 84.1875C165.635 84.6667 164.792 85.2812 163.562 86.0312ZM150.438 57.3125C147.375 58.6042 145.396 59.9792 144.5 61.4375C143.625 62.875 142.99 65.2604 142.594 68.5938C142.219 71.9271 143.104 74.2812 145.25 75.6562C147.396 77.0104 150.479 77.1354 154.5 76.0312C155.479 75.1146 156.094 73.9271 156.344 72.4688C157.115 68.4688 157.5 65.6771 157.5 64.0938C157.521 62.4896 157.448 61.3229 157.281 60.5938C157.115 59.8438 156.521 59.0729 155.5 58.2812C154.479 57.4896 152.792 57.1667 150.438 57.3125ZM184.031 58.1562C183.844 67.3021 183.75 73.8333 183.75 77.75C184.271 82 183.271 84.2083 180.75 84.375C178.25 84.5625 176.76 84.2708 176.281 83.5C175.823 82.75 175.635 81.2188 175.719 78.9062C175.823 76.5938 175.958 69.875 176.125 58.75C172.188 58.7083 169.615 58.5104 168.406 58.1562C167.219 57.8021 166.604 56.8229 166.562 55.2188C166.521 53.6146 166.667 52.1042 167 50.6875C167.354 49.25 174.562 48.6771 188.625 48.9688C190.167 48.9688 191.573 49.0625 192.844 49.25C194.135 49.4167 194.729 50.2188 194.625 51.6562C194.521 53.0938 194.302 54.3125 193.969 55.3125C193.656 56.3125 193.021 57.0312 192.062 57.4688C191.125 57.9062 188.448 58.1354 184.031 58.1562ZM201.844 49C205.531 49.1458 207.333 50.2083 207.25 52.1875C207.167 54.1667 206.99 56.9792 206.719 60.625C213.615 59.125 218.302 59.5729 220.781 61.9688C223.26 64.3646 224.375 67.8229 224.125 72.3438C223.875 76.8438 222.354 79.7604 219.562 81.0938C216.771 82.4062 212.49 83.0104 206.719 82.9062C200.969 82.8229 197.896 79.7708 197.5 73.75C197.104 67.7083 197.115 62.9896 197.531 59.5938C197.969 56.1979 198.396 53.5729 198.812 51.7188C199.229 49.8438 200.24 48.9375 201.844 49ZM216.375 71.4688C216.375 69.5312 215.781 68.2292 214.594 67.5625C213.635 67 211.917 66.7188 209.438 66.7188C208.771 66.7188 208.146 66.7292 207.562 66.75C206.979 66.75 206.542 67.2604 206.25 68.2812C205.979 69.3021 205.771 70.7604 205.625 72.6562C205.479 74.5312 206.802 75.5417 209.594 75.6875C214.115 75.6875 216.375 74.2812 216.375 71.4688ZM261.344 47.9062C266.344 47.1146 270.219 48.9896 272.969 53.5312C275.719 58.0521 276.854 62.5833 276.375 67.125C275.896 71.6458 274.292 75.8021 271.562 79.5938C268.854 83.3854 264.854 85.1146 259.562 84.7812C254.271 84.4688 250.604 82.3333 248.562 78.375C246.521 74.4167 245.448 69.5 245.344 63.625C245.24 57.7292 246.208 52.5 248.25 47.9375C250.312 43.3542 253.01 40.0729 256.344 38.0938C259.698 36.0938 262.812 35.1667 265.688 35.3125C268.562 35.4375 270.188 34.7292 270.562 33.1875C270.938 31.6458 272.052 30.9062 273.906 30.9688C275.76 31.0104 277 31.8021 277.625 33.3438C278.271 34.8646 278.51 36.5521 278.344 38.4062C278.177 40.2604 276.906 41.5938 274.531 42.4062C272.177 43.1979 269.562 43.8333 266.688 44.3125C263.812 44.7917 262.031 45.9896 261.344 47.9062ZM267.906 63.6562C267.469 60.3854 265.917 58.5312 263.25 58.0938C260.583 57.6354 258.531 58.4062 257.094 60.4062C255.677 62.4062 254.896 64.6458 254.75 67.125C254.604 69.5833 255.052 71.7604 256.094 73.6562C257.135 75.5312 259 76.1979 261.688 75.6562C264.396 75.0938 266.219 73.7708 267.156 71.6875C268.115 69.6042 268.365 66.9271 267.906 63.6562ZM314.469 57.6562C317.156 63.9688 317 69.9062 314 75.4688C311 81.0312 306.5 83.9062 300.5 84.0938C294.521 84.2812 289.865 83.0938 286.531 80.5312C283.198 77.9688 281.438 74.3333 281.25 69.625C281.062 64.8958 282.073 60.1979 284.281 55.5312C286.49 50.8438 291.396 48.4479 299 48.3438C306.625 48.2396 311.781 51.3438 314.469 57.6562ZM308.594 64.9375C308.406 62.625 307.385 60.75 305.531 59.3125C303.677 57.875 301.135 57.3438 297.906 57.7188C294.698 58.0938 292.542 59.3125 291.438 61.375C290.354 63.4167 289.958 65.7083 290.25 68.25C290.542 70.7917 291.542 72.6354 293.25 73.7812C294.958 74.9062 297.052 75.4479 299.531 75.4062C302.031 75.3646 304.208 74.1875 306.062 71.875C307.938 69.5625 308.781 67.25 308.594 64.9375ZM349.969 59.75C344.99 59.3542 340.938 59.3021 337.812 59.5938C337.854 61.5729 337.906 64.4792 337.969 68.3125C338.052 72.1458 337.604 75.6458 336.625 78.8125C335.646 81.9583 333.656 83.6042 330.656 83.75C327.656 83.8958 325.188 83.4792 323.25 82.5C321.333 81.5417 320.51 80.4375 320.781 79.1875C321.073 77.9167 321.521 76.875 322.125 76.0625C322.729 75.2292 323.292 74.6146 323.812 74.2188C324.354 73.8229 325.062 73.9792 325.938 74.6875C326.812 75.3958 327.677 75.7708 328.531 75.8125C329.385 75.8333 330.01 75.1146 330.406 73.6562C330.802 72.1771 330.958 70.2708 330.875 67.9375C330.812 65.5833 330.604 62.0938 330.25 57.4688C329.896 52.8229 330.031 50.0833 330.656 49.25C331.302 48.3958 334.375 47.9375 339.875 47.875C345.375 47.8125 348.969 47.8333 350.656 47.9375C352.365 48.0417 353.938 48.2083 355.375 48.4375C356.833 48.6458 357.781 49.7083 358.219 51.625C358.656 53.5208 358.875 56.2917 358.875 59.9375C358.896 63.5625 359.031 66.9896 359.281 70.2188C359.552 73.4271 359.656 76.3542 359.594 79C359.552 81.6458 358.896 83.1146 357.625 83.4062C356.354 83.7188 355.156 83.8542 354.031 83.8125C352.927 83.7708 352.146 83.3542 351.688 82.5625C351.25 81.7708 350.844 79.3646 350.469 75.3438C350.115 71.3021 349.948 66.1042 349.969 59.75ZM367.781 49C371.469 49.1458 373.271 50.2083 373.188 52.1875C373.104 54.1667 372.927 56.9792 372.656 60.625C379.552 59.125 384.24 59.5729 386.719 61.9688C389.198 64.3646 390.312 67.8229 390.062 72.3438C389.812 76.8438 388.292 79.7604 385.5 81.0938C382.708 82.4062 378.427 83.0104 372.656 82.9062C366.906 82.8229 363.833 79.7708 363.438 73.75C363.042 67.7083 363.052 62.9896 363.469 59.5938C363.906 56.1979 364.333 53.5729 364.75 51.7188C365.167 49.8438 366.177 48.9375 367.781 49ZM382.312 71.4688C382.312 69.5312 381.719 68.2292 380.531 67.5625C379.573 67 377.854 66.7188 375.375 66.7188C374.708 66.7188 374.083 66.7292 373.5 66.75C372.917 66.75 372.479 67.2604 372.188 68.2812C371.917 69.3021 371.708 70.7604 371.562 72.6562C371.417 74.5312 372.74 75.5417 375.531 75.6875C380.052 75.6875 382.312 74.2812 382.312 71.4688ZM435.031 79.8438C435.219 82.4271 433.292 83.6771 429.25 83.5938C425.542 83.5938 420 83.4896 412.625 83.2812C405.25 83.0938 399.708 83 396 83C395.188 83 394.406 82.6875 393.656 82.0625C392.927 81.4375 392.635 78.6042 392.781 73.5625C392.948 68.5 393.115 63.9792 393.281 60C393.469 56 393.948 53.5208 394.719 52.5625C395.51 51.6042 396.99 51.1562 399.156 51.2188C401.323 51.2812 402.302 52.8021 402.094 55.7812C402.385 63.5312 402.708 69.1979 403.062 72.7812L409.719 73.0312C409.927 69.9896 410.052 65.5521 410.094 59.7188C410.135 53.8854 410.833 50.8125 412.188 50.5C413.562 50.1667 414.844 50.0729 416.031 50.2188C417.24 50.3438 418.083 50.8542 418.562 51.75C419.042 52.625 419.135 59.8646 418.844 73.4688L427.625 72.8125C427.646 63.8125 427.562 57.5625 427.375 54.0625C427.188 50.5417 428.052 48.8229 429.969 48.9062C431.885 48.9688 433.312 49.2396 434.25 49.7188C435.188 50.1771 435.448 60.2188 435.031 79.8438ZM455.438 84.1875C450.021 84.1042 446.062 82.8854 443.562 80.5312C440.875 77.5104 439.208 73.625 438.562 68.875C438.708 63.5208 440.198 58.8333 443.031 54.8125C445.677 51.0208 449.635 48.9896 454.906 48.7188C459.135 48.4271 462.281 49.1458 464.344 50.875C467.74 52.4583 469.75 55.5938 470.375 60.2812C470.729 62.4479 469.979 64.3125 468.125 65.875C459.917 71.3542 453.656 73.1875 449.344 71.375C449.115 74.3125 451.177 76.125 455.531 76.8125C457.76 76.8125 459.802 76.375 461.656 75.5C463.469 73.9583 464.833 72.7917 465.75 72C466.688 71.1875 467.708 70.9583 468.812 71.3125C469.604 72.0208 470.208 72.6771 470.625 73.2812C471.062 73.8646 471.427 74.5521 471.719 75.3438C472.865 76.6562 470.646 78.8542 465.062 81.9375C461.729 83.3542 458.521 84.1042 455.438 84.1875ZM455.656 64.8438C462.698 62.9896 465.448 60.8854 463.906 58.5312C462.365 56.1562 459.823 55.5208 456.281 56.625C452.76 57.7292 450.073 59.375 448.219 61.5625C446.365 63.7292 448.844 64.8229 455.656 64.8438Z" fill="white"/>
</g>
<defs>
<filter id="filter0_d" x="0" y="2.1488" width="497.556" height="121.74" filterUnits="userSpaceOnUse" color-interpolation-filters="sRGB">
<feFlood flood-opacity="0" result="BackgroundImageFix"/>
<feColorMatrix in="SourceAlpha" type="matrix" values="0 0 0 0 0 0 0 0 0 0 0 0 0 0 0 0 0 0 127 0"/>
<feOffset dy="4"/>
<feGaussianBlur stdDeviation="2"/>
<feColorMatrix type="matrix" values="0 0 0 0 0 0 0 0 0 0 0 0 0 0 0 0 0 0 0.25 0"/>
<feBlend mode="normal" in2="BackgroundImageFix" result="effect1_dropShadow"/>
<feBlend mode="normal" in="SourceGraphic" in2="effect1_dropShadow" result="shape"/>
</filter>
</defs>
</svg>
