<svg width="652" height="652" viewBox="0 0 652 652" fill="none" xmlns="http://www.w3.org/2000/svg">
<path d="M562.4 326.6C562.4 469 445.5 584.4 304.6 584.4C162.2 584.4 46.7999 469 46.7999 326.6C46.7999 185.7 162.2 68.7 304.6 68.7C445.5 68.8 562.4 185.7 562.4 326.6Z" fill="#5BC0DE"/>
<path d="M307.5 92.7999C307.5 94.2999 306 94.2999 306 94.2999C304.5 94.2999 303 94.2999 303 92.7999C303 91.2999 304.5 91.2999 306 91.2999C306.1 91.2999 307.5 91.2999 307.5 92.7999Z" fill="white"/>
<path d="M322.5 124.3C322.5 125.8 321 127.3 319.5 127.3C318 127.3 316.5 125.8 316.5 124.3C316.5 122.8 318 121.3 319.5 121.3C321 121.3 322.5 122.8 322.5 124.3Z" fill="white"/>
<path d="M360 176.7C360 178.2 358.5 179.7 357 179.7C355.5 179.7 354 178.2 354 176.7C354 175.2 355.5 173.7 357 173.7C358.5 173.7 360 175.2 360 176.7Z" fill="white"/>
<path d="M298.6 142.3C298.6 143.8 298.6 145.3 297.1 145.3C295.6 145.3 295.6 143.8 295.6 142.3C295.6 140.8 295.6 140.8 297.1 140.8C298.6 140.8 298.6 140.8 298.6 142.3Z" fill="white"/>
<path d="M321 154.2C321 155.7 321 157.2 319.5 157.2C318 157.2 318 155.7 318 154.2C318 152.7 318 152.7 319.5 152.7C321 152.7 321 152.7 321 154.2Z" fill="white"/>
<path d="M292.6 121.3C292.6 122.8 291.1 124.3 289.6 124.3C288.1 124.3 286.6 122.8 286.6 121.3C286.6 119.8 288.1 118.3 289.6 118.3C291.1 118.3 292.6 119.8 292.6 121.3Z" fill="white"/>
<path d="M258.1 142.3L256.6 143.8C255.1 143.8 253.6 142.3 253.6 142.3C253.6 140.8 255.1 139.3 256.6 139.3C256.6 139.3 258.1 140.8 258.1 142.3Z" fill="white"/>
<path d="M264.1 146.7L262.6 148.2C261.1 148.2 259.6 146.7 259.6 146.7C259.6 145.2 261.1 143.7 262.6 143.7C262.6 143.8 264.1 145.2 264.1 146.7Z" fill="white"/>
<path d="M270.1 149.7C270.1 151.2 270.1 152.7 268.6 152.7C267.1 152.7 265.6 151.2 265.6 149.7C265.6 149.7 267.1 148.2 268.6 148.2C270.1 148.2 270.1 149.7 270.1 149.7Z" fill="white"/>
<path d="M261.1 158.7C261.1 158.7 259.6 160.2 258.1 160.2L256.6 158.7C256.6 157.2 258.1 155.7 258.1 155.7C259.6 155.7 261.1 157.2 261.1 158.7Z" fill="white"/>
<path d="M211.6 193.2C211.6 193.2 211.6 194.7 210.1 194.7C208.6 194.7 208.6 193.2 208.6 193.2C208.6 191.7 208.6 190.2 210.1 190.2C211.6 190.2 211.6 191.7 211.6 193.2Z" fill="white"/>
<path d="M220.6 203.7C220.6 205.2 220.6 205.2 219.1 205.2C217.6 205.2 217.6 205.2 217.6 203.7C217.6 202.2 217.6 200.7 219.1 200.7C220.6 200.7 220.6 202.2 220.6 203.7Z" fill="white"/>
<path d="M214.6 380.6C214.6 382.1 213.1 383.6 211.6 383.6C210.1 383.6 210.1 382.1 210.1 380.6C210.1 379.1 210.1 379.1 211.6 379.1C213.1 379.1 214.6 379.1 214.6 380.6Z" fill="white"/>
<path d="M216.1 430.1C216.1 431.6 214.6 433.1 213.1 433.1C211.6 433.1 210.1 431.6 210.1 430.1C210.1 428.6 211.6 427.1 213.1 427.1C214.6 427.1 216.1 428.6 216.1 430.1Z" fill="white"/>
<path d="M187.6 455.6L186.1 457.1C184.6 457.1 183.1 455.6 183.1 455.6C183.1 454.1 184.6 452.6 186.1 452.6C186.1 452.6 187.6 454.1 187.6 455.6Z" fill="white"/>
<path d="M154.6 464.6C154.6 466.1 153.1 467.6 151.6 467.6C150.1 467.6 148.6 466.1 148.6 464.6C148.6 463.1 150.1 463.1 151.6 463.1C153.1 463.1 154.6 463.1 154.6 464.6Z" fill="white"/>
<path d="M147.1 442.1C147.1 443.6 145.6 445.1 145.6 445.1C144.1 445.1 142.6 443.6 142.6 442.1C142.6 440.6 144.1 440.6 145.6 440.6C145.6 440.6 147.1 440.6 147.1 442.1Z" fill="white"/>
<path d="M144.2 457.1C144.2 458.6 142.7 458.6 141.2 458.6C139.7 458.6 139.7 458.6 139.7 457.1C139.7 455.6 139.7 454.1 141.2 454.1C142.7 454.1 144.2 455.6 144.2 457.1Z" fill="white"/>
<path d="M118.7 445.1C118.7 446.6 117.2 446.6 117.2 446.6C115.7 446.6 114.2 446.6 114.2 445.1C114.2 443.6 115.7 442.1 117.2 442.1C117.2 442.1 118.7 443.6 118.7 445.1Z" fill="white"/>
<path d="M205.6 485.5C205.6 487 204.1 487 204.1 487C202.6 487 201.1 487 201.1 485.5C201.1 484 202.6 482.5 204.1 482.5C204.1 482.5 205.6 484 205.6 485.5Z" fill="white"/>
<path d="M231.1 466.1C231.1 467.6 231.1 469.1 229.6 469.1C228.1 469.1 226.6 467.6 226.6 466.1C226.6 464.6 228.1 463.1 229.6 463.1C231.1 463.1 231.1 464.6 231.1 466.1Z" fill="white"/>
<path d="M234.1 490C234.1 491.5 234.1 493 232.6 493C231.1 493 231.1 491.5 231.1 490C231.1 490 231.1 488.5 232.6 488.5C234.1 488.5 234.1 490 234.1 490Z" fill="white"/>
<path d="M342 467.6C342 469.1 342 469.1 340.5 469.1C339 469.1 337.5 469.1 337.5 467.6C337.5 466.1 339 464.6 340.5 464.6C342 464.6 342 466.1 342 467.6Z" fill="white"/>
<path d="M292.6 485.5C292.6 485.5 291.1 487 289.6 487L288.1 485.5C288.1 484 289.6 482.5 289.6 482.5C291.1 482.5 292.6 484 292.6 485.5Z" fill="white"/>
<path d="M427.5 511C427.5 511 426 512.5 424.5 512.5L423 511C423 509.5 424.5 508 424.5 508C426 508 427.5 509.5 427.5 511Z" fill="white"/>
<path d="M438 410.6C438 412.1 436.5 413.6 435 413.6C433.5 413.6 433.5 412.1 433.5 410.6C433.5 409.1 433.5 409.1 435 409.1C436.5 409.1 438 409.1 438 410.6Z" fill="white"/>
<path d="M417 425.6C417 427.1 417 427.1 415.5 427.1C414 427.1 412.5 427.1 412.5 425.6C412.5 424.1 414 422.6 415.5 422.6C417 422.6 417 424.1 417 425.6Z" fill="white"/>
<path d="M438 428.6C438 430.1 436.5 431.6 435 431.6C433.5 431.6 432 430.1 432 428.6C432 427.1 433.5 427.1 435 427.1C436.5 427.1 438 427.1 438 428.6Z" fill="white"/>
<path d="M417 454.1C417 455.6 417 457.1 415.5 457.1C414 457.1 412.5 455.6 412.5 454.1C412.5 452.6 414 452.6 415.5 452.6C417 452.6 417 452.6 417 454.1Z" fill="white"/>
<path d="M469.4 397.1C469.4 398.6 469.4 398.6 467.9 398.6C466.4 398.6 466.4 398.6 466.4 397.1C466.4 395.6 466.4 395.6 467.9 395.6C469.4 395.6 469.4 395.6 469.4 397.1Z" fill="white"/>
<path d="M475.4 409.1C475.4 410.6 473.9 412.1 472.4 412.1C470.9 412.1 469.4 410.6 469.4 409.1C469.4 409.1 470.9 407.6 472.4 407.6C473.9 407.6 475.4 409.1 475.4 409.1Z" fill="white"/>
<path d="M511.4 425.6C511.4 427.1 509.9 427.1 508.4 427.1C506.9 427.1 505.4 427.1 505.4 425.6C505.4 424.1 506.9 422.6 508.4 422.6C509.9 422.6 511.4 424.1 511.4 425.6Z" fill="white"/>
<path d="M473.9 452.6C473.9 452.6 473.9 454.1 472.4 454.1C470.9 454.1 470.9 452.6 470.9 452.6C470.9 451.1 470.9 449.6 472.4 449.6C473.9 449.6 473.9 451.1 473.9 452.6Z" fill="white"/>
<path d="M497.9 430.1C497.9 431.6 496.4 431.6 494.9 431.6C494.9 431.6 493.4 431.6 493.4 430.1C493.4 428.6 494.9 428.6 494.9 428.6C496.4 428.6 497.9 428.6 497.9 430.1Z" fill="white"/>
<path d="M493.4 464.6L491.9 466.1C490.4 466.1 488.9 464.6 488.9 464.6C488.9 463.1 490.4 461.6 491.9 461.6C491.9 461.6 493.4 463.1 493.4 464.6Z" fill="white"/>
<path d="M352.5 118.3C352.5 116.8 354 116.8 355.5 115.3C355.5 110.8 355.5 110.8 355.5 110.8C357 115.3 357 115.3 357 115.3C358.5 116.8 360 116.8 360 118.3C366 119.8 366 119.8 366 119.8C360 121.3 360 121.3 360 121.3C360 121.3 358.5 122.8 357 122.8C355.5 128.8 355.5 128.8 355.5 128.8C355.5 122.8 355.5 122.8 355.5 122.8C354 122.8 352.5 121.3 352.5 119.8C348 119.8 348 119.8 348 119.8C352.5 118.3 352.5 118.3 352.5 118.3Z" fill="white"/>
<path d="M207.1 515.5C208.6 514 208.6 512.5 210.1 512.5C211.6 506.5 211.6 506.5 211.6 506.5C213.1 512.5 213.1 512.5 213.1 512.5C213.1 512.5 214.6 514 214.6 515.5C220.6 515.5 220.6 515.5 220.6 515.5C214.6 517 214.6 517 214.6 517C214.6 518.5 213.1 518.5 211.6 520C211.6 524.5 211.6 524.5 211.6 524.5C210.1 520 210.1 520 210.1 520C208.6 518.5 208.6 518.5 207.1 517C202.6 515.5 202.6 515.5 202.6 515.5C207.1 515.5 207.1 515.5 207.1 515.5Z" fill="white"/>
<path d="M473.9 463.1C473.9 463.1 475.4 461.6 476.9 461.6C478.4 455.6 478.4 455.6 478.4 455.6C478.4 461.6 478.4 461.6 478.4 461.6C479.9 461.6 481.4 463.1 481.4 464.6C487.4 464.6 487.4 464.6 487.4 464.6C481.4 466.1 481.4 466.1 481.4 466.1C481.4 467.6 479.9 467.6 478.4 469.1C478.4 473.6 478.4 473.6 478.4 473.6C476.9 467.6 476.9 467.6 476.9 467.6C475.4 467.6 473.9 467.6 473.9 466.1C469.4 464.6 469.4 464.6 469.4 464.6C473.9 463.1 473.9 463.1 473.9 463.1Z" fill="white"/>
<path d="M494.9 406.1C496.4 406.1 496.4 404.6 497.9 404.6C499.4 398.6 499.4 398.6 499.4 398.6C499.4 404.6 499.4 404.6 499.4 404.6C500.9 404.6 502.4 406.1 502.4 407.6C508.4 407.6 508.4 407.6 508.4 407.6C502.4 409.1 502.4 409.1 502.4 409.1C502.4 410.6 500.9 410.6 499.4 412.1C499.4 416.6 499.4 416.6 499.4 416.6C497.9 410.6 497.9 410.6 497.9 410.6C496.4 410.6 494.9 410.6 494.9 409.1C490.4 407.6 490.4 407.6 490.4 407.6C494.9 406.1 494.9 406.1 494.9 406.1Z" fill="white"/>
<path d="M234.1 196.2C234.1 194.7 235.6 194.7 237.1 193.2C237.1 188.7 237.1 188.7 237.1 188.7C238.6 193.2 238.6 193.2 238.6 193.2C240.1 194.7 240.1 194.7 241.6 196.2C246.1 197.7 246.1 197.7 246.1 197.7C240.1 197.7 240.1 197.7 240.1 197.7C240.1 199.2 240.1 200.7 238.6 200.7C237.1 206.7 237.1 206.7 237.1 206.7C235.6 200.7 235.6 200.7 235.6 200.7C235.6 200.7 234.1 199.2 234.1 197.7C228.1 197.7 228.1 197.7 228.1 197.7C234.1 196.2 234.1 196.2 234.1 196.2Z" fill="white"/>
<path d="M216.1 316.2C235.6 349.2 258.1 374.7 276.1 397.2C291.1 418.2 322.6 428.7 312.1 437.7C300.1 448.2 270.1 400.2 270.1 400.2C250.6 376.2 231.1 350.7 211.6 317.7C216.1 316.2 216.1 316.2 216.1 316.2Z" fill="white"/>
<path d="M15.2 403.1C106.6 343.1 268.5 304.2 400.5 251.7C500.9 211.2 589.4 161.7 638.8 92.7999C515.9 340.1 177.1 311.6 21.2 406.1C15.2 403.1 15.2 403.1 15.2 403.1Z" fill="#FF8387"/>
<path d="M229.6 280.2H274.6L309.1 364.2L319.6 374.7H259.6L270.1 364.2L267.1 353.7H232.6L229.6 365.7L237.1 374.7H207.1L217.6 364.2L238.6 290.8L229.6 280.2ZM261.1 338.6L247.6 305.6L237.1 338.6H261.1Z" fill="white"/>
<path d="M444 280.2H490.5L525 364.2L535.5 374.7H475.5L486 364.2L483 353.7H448.5L445.5 365.7L453 374.7H423L433.5 364.2L454.5 290.8L444 280.2ZM476.9 338.6L463.4 305.6L452.9 338.6H476.9Z" fill="white"/>
<path d="M166.6 338.6C166.6 335.6 166.6 290.6 166.6 290.6C157.6 280.1 157.6 280.1 157.6 280.1C189.1 280.1 189.1 280.1 189.1 280.1C180.1 290.6 180.1 290.6 180.1 290.6C180.1 364 180.1 364 180.1 364C190.6 374.5 190.6 374.5 190.6 374.5C148.6 374.5 148.6 374.5 148.6 374.5C112.6 313 112.6 313 112.6 313C112.6 316 112.6 364 112.6 364C121.6 374.5 121.6 374.5 121.6 374.5C88.6 374.5 88.6 374.5 88.6 374.5C99.1 364 99.1 364 99.1 364C99.1 290.6 99.1 290.6 99.1 290.6C90.1 280.1 90.1 280.1 90.1 280.1C132.1 280.1 132.1 280.1 132.1 280.1C166.6 338.6 166.6 338.6 166.6 338.6Z" fill="white"/>
<path d="M408 304.2C406.5 275.7 406.5 275.7 406.5 275.7C397.5 281.7 397.5 281.7 397.5 281.7C384 277.2 367.5 277.2 355.5 283.2C345 287.7 333 298.2 334.5 313.2C336 328.2 348 334.2 358.5 338.7C372 344.7 387 347.7 387 355.2C387 361.2 378 364.2 372 364.2C366 364.2 345 362.7 334.5 350.7C337.5 380.7 337.5 380.7 337.5 380.7C348 373.2 348 373.2 348 373.2C361.5 377.7 378 379.2 393 374.7C408 370.2 423 358.2 414 335.7C411 326.7 400.5 320.7 394.5 317.7C388.5 316.2 372 308.7 367.5 307.2C361.5 304.2 361.5 293.7 375 292.2C387 290.7 405 301.2 408 304.2Z" fill="white"/>
<path d="M87.2 548.5C271.6 359.6 547.4 272.7 638.9 92.7999C583.4 268.2 288.1 364.1 85.7 557.5C87.2 548.5 87.2 548.5 87.2 548.5Z" fill="#FF8387"/>
<path d="M211.6 317.7C210.1 314.7 207.1 310.2 205.6 307.2C156.1 217.3 163.6 127.3 252.1 166.3C328.5 200.8 400.5 293.7 429 361.2C442.5 391.2 478.5 512.6 363 463.1C472.4 508.1 453 394.1 394.5 305.7C361.5 256.2 318.1 214.2 291.1 194.8C199.6 128.8 144.2 169.3 207.1 299.7C210.1 305.7 213.1 310.2 216.1 316.2C211.6 317.7 211.6 317.7 211.6 317.7Z" fill="white"/>
</svg>
