<svg height="512pt" viewBox="0 0 512 512.00007" width="512pt" xmlns="http://www.w3.org/2000/svg"><path d="m384.148438 57.800781-21.042969-16.515625c-37.40625-26.027344-82.867188-41.285156-131.890625-41.285156-49.679688 0-95.699219 15.667969-133.390625 42.332031-59.183594 41.875-73.488281 110.863281-73.488281 188.878907 0 127.695312 79.183593 223.121093 206.875 223.121093 106.945312 0 196.929687-64.511719 223.351562-163.121093 5.128906-19.132813 7.863281-39.246094 7.863281-60 0-69.054688-30.277343-131.042969-78.277343-173.410157zm0 0" fill="#e2a975"/><g fill="#d19a6e"><path d="m289.785156 358.207031c-4.296875 10.632813-6.960937 21.5-8.160156 32.355469-1.011719 9.160156-8.859375 16.066406-18.03125 15.15625-116.835938-11.597656-208.101562-110.109375-208.101562-229.996094 0-49.679687 15.671874-95.703125 42.332031-133.390625-27.238281 19.269531-50.125 44.28125-66.894531 73.273438l-8.683594 16.515625c-16.464844 34.65625-24.558594 74.0625-21.671875 115.605468l1.746093 16.519532c14.980469 104.949218 101.910157 188.15625 208.585938 197.304687 62.011719 5.320313 119.308594-13.996093 163.566406-49.082031.035156 0 .074219-.003906.109375-.003906.632813-.503906 8.761719-7.34375 12.09375-10.378906 32.1875-29.28125 56.207031-67.429688 67.839844-110.707032.027344-.097656.046875-.167968.046875-.167968-64.207031-28.109376-138.691406 2.457031-164.777344 66.996093zm0 0"/><path d="m231.214844 115.605469h-172.609375c-3.113281 5.378906-6.050781 10.875-8.730469 16.515625h181.339844c4.5625 0 8.257812-3.699219 8.257812-8.257813-.003906-4.558593-3.695312-8.257812-8.257812-8.257812zm0 0"/><path d="m346.820312 247.726562h-284.054687c.394531 5.5625.957031 11.070313 1.734375 16.515626h282.320312c4.558594 0 8.257813-3.695313 8.257813-8.257813 0-4.558594-3.699219-8.257813-8.257813-8.257813zm0 0"/></g><path d="m506.496094 370.769531-22.097656-38.015625c-10.570313-11.75-23.910157-21.339844-39.550782-27.660156-33.265625-13.445312-69.316406-9.027344-97.519531 8.738281-18.402344 11.589844-28.558594 29.464844-37.328125 51.167969-22.214844 54.964844 2.03125 112.117188 57 134.332031 48.953125 19.785157 101.335938 5.707031 128.472656-37.496093 3.335938-5.304688 6.246094-10.976563 8.675782-16.988282 9.945312-24.601562 10.117187-50.726562 2.347656-74.078125zm0 0" fill="#d6bdef"/><path d="m397.941406 470.601562c-54.964844-22.214843-81.515625-84.785156-59.300781-139.75 2.433594-6.019531 5.347656-11.710937 8.683594-17.023437-18.410157 11.589844-33.453125 28.855469-42.230469 50.566406-11.859375 29.351563-9.820312 60.871094 3.027344 87.253907l28.382812 35.976562c8.199219 6.726562 17.542969 12.339844 27.894532 16.523438 48.949218 19.785156 103.917968.902343 131.058593-42.289063-28.199219 17.753906-64.257812 22.183594-97.515625 8.742187zm0 0" fill="#c3aff0"/><path d="m392.25 172.3125c-1.820312 1.445312-3.417969 3.304688-5.707031 3.847656-11.195313 2.65625-27.09375-5.101562-38.851563-19.9375-10.46875-13.210937-14.722656-28.335937-11.898437-38.761718.996093-3.675782 4.578125-5.078126 7.375-7.292969 10.722656-8.5 27.671875-1.039063 41.832031 16.832031 14.164062 17.871094 17.972656 36.816406 7.25 45.3125zm0 0" fill="#c38c66"/><path d="m261 255.984375c0 12.304687-3.480469 23.035156-13.457031 28.71875-4.8125 2.746094-10.390625 4.3125-16.328125 4.3125-18.242188 0-33.03125-14.789063-33.03125-33.03125 0-5.941406 1.566406-11.515625 4.3125-16.328125 5.6875-9.976562 16.414062-14.15625 28.71875-14.15625 18.242187 0 29.785156 12.242188 29.785156 30.484375zm0 0" fill="#c38c66"/><path d="m247.730469 388.105469h-65.632813c-4.566406 0-8.261718-3.695313-8.261718-8.257813 0-4.558594 3.695312-8.257812 8.261718-8.257812h65.632813c4.5625 0 8.257812 3.699218 8.257812 8.257812 0 4.5625-3.695312 8.257813-8.257812 8.257813zm0 0" fill="#d19a6e"/><path d="m231.214844 222.953125c-12.316406 0-23.039063 6.707031-28.71875 16.699219 4.808594-2.734375 10.402344-4.3125 16.332031-4.3125 18.242187 0 33.03125 14.789062 33.03125 33.03125 0 5.929687-1.582031 11.519531-4.316406 16.328125 9.988281-5.679688 16.699219-16.398438 16.699219-28.714844 0-18.242187-14.785157-33.03125-33.027344-33.03125zm0 0" fill="#b57f5f"/><path d="m386.519531 125.449219c-14.160156-17.871094-34.335937-25.46875-45.058593-16.972657-2.785157 2.210938-4.667969 5.324219-5.667969 8.984376 11.203125-2.753907 27.171875 4.84375 38.976562 19.738281 10.480469 13.226562 14.617188 28.535156 11.773438 38.960937 2.234375-.550781 4.421875-1.550781 6.207031-2.964844 10.722656-8.496093 7.933594-29.875-6.230469-47.746093zm0 0" fill="#b57f5f"/><path d="m2.328125 264.242188h70.71875c-2.238281-5.402344-4.28125-10.914063-6.117187-16.515626h-66.351563c.390625 5.5625.96875 11.070313 1.75 16.515626zm0 0" fill="#c38c66"/><path d="m159.5 164.75c-10.25 10.25-26.976562 22.484375-42.296875 21.867188-8.675781-.347657-16.46875-3.308594-22.238281-9.078126-15.964844-15.964843-10.417969-47.386718 12.386718-70.191406 8.5625-8.5625 18.339844-14.691406 28.058594-18.160156 16.164063-5.773438 31.121094-1.15625 41.089844 8.8125 15.960938 15.960938 5.804688 43.945312-17 66.75zm0 0" fill="#c38c66"/><path d="m177.539062 94.960938c-9.96875-9.96875-25.964843-11.546876-42.128906-5.773438 8.710938.332031 16.550782 3.253906 22.339844 9.046875 15.964844 15.960937 10.417969 47.386719-12.382812 70.1875-8.5625 8.5625-18.445313 14.726563-28.164063 18.195313 15.300781.585937 33.417969-6.9375 47.949219-21.464844 22.804687-22.804688 28.347656-54.230469 12.386718-70.191406zm0 0" fill="#b57f5f"/><path d="m22.25 132.121094h37.347656c1.066406-5.578125 2.324219-11.085938 3.785156-16.515625h-32.453124c-3.113282 5.375-5.996094 10.878906-8.679688 16.515625zm0 0" fill="#c38c66"/><path d="m363.105469 41.289062h-74.089844c-4.5625 0-8.257813 3.695313-8.257813 8.257813 0 4.558594 3.695313 8.257813 8.257813 8.257813h95.132813c-6.6875-5.898438-13.703126-11.414063-21.042969-16.515626zm0 0" fill="#d19a6e"/><path d="m215.125 395.5625c-.058594-11.925781-11.722656-25.289062-29.164062-32.101562-13.269532-5.183594-26.644532-5.3125-35.867188-1.234376l23.15625 36.523438zm0 0" fill="#c38c66"/><path d="m139.328125 372.71875c-5.140625 13.164062 7.398437 30.363281 28.011719 38.414062 20.613281 8.050782 41.492187 3.90625 46.636718-9.257812.789063-2.027344 1.164063-4.140625 1.148438-6.3125-23.484375-7.65625-45.523438-19.035156-65.03125-33.335938-5.109375 2.257813-8.933594 5.796876-10.765625 10.492188zm0 0" fill="#b57f5f"/><path d="m484.394531 332.757812-100.625 42.65625c-10.386719 4.40625-15.238281 16.402344-10.828125 26.792969s-.441406 22.386719-10.828125 26.796875l-11.15625 4.679688.878907 27.148437 35.84375 4.988281 55.144531-23.492187c10.390625-4.410156 15.238281-16.40625 10.828125-26.796875-4.40625-10.390625.441406-22.386719 10.832031-26.796875l42.015625-17.964844c-4.65625-13.984375-12.140625-26.941406-22.105469-38.011719zm0 0" fill="#ffe07d"/><path d="m350.953125 433.679688-42.828125 17.96875c6.683594 13.722656 16.285156 26.0625 28.378906 35.976562l51.175782-21.800781c-14.9375-7.9375-27.347657-19.058594-36.726563-32.144531zm0 0" fill="#ffd064"/></svg>