<?xml version="1.0"?>
<svg xmlns="http://www.w3.org/2000/svg" viewBox="0 0 64 64" width="512" height="512"><path d="m36 37 5 6 4-4-2-10z" fill="#32b1cc"/><path d="m27 28-6-5 4-4 10 2z" fill="#32b1cc"/><path d="m7 23a1 1 0 0 1 -1-1 3 3 0 0 0 -3-3 1 1 0 0 1 0-2 3 3 0 0 0 3-3 1 1 0 0 1 2 0 3 3 0 0 0 3 3 1 1 0 0 1 0 2 3 3 0 0 0 -3 3 1 1 0 0 1 -1 1zm-1-5a5.043 5.043 0 0 1 1 1 5.043 5.043 0 0 1 1-1 5.043 5.043 0 0 1 -1-1 5.043 5.043 0 0 1 -1 1z" fill="#fcf05a"/><g fill="#fdbd40"><path d="m16 6h2v2h-2z"/><path d="m16 10h2v2h-2z"/><path d="m14 8h2v2h-2z"/><path d="m18 8h2v2h-2z"/><path d="m29 54h2v2h-2z"/><path d="m25 56h2v2h-2z"/></g><path d="m55.707 8.293a1 1 0 0 0 -.817-.287l-9 1a1 1 0 0 0 -.6 1.7l8 8a1 1 0 0 0 1.7-.6l1-9a1 1 0 0 0 -.283-.813z" fill="#e9686a"/><path d="m54.707 17.293-8-8a1 1 0 0 0 -1.313-.093l-21 16a1 1 0 0 0 -.1 1.5l13 13a1 1 0 0 0 .706.3h.067a1 1 0 0 0 .728-.392l16-21a1 1 0 0 0 -.088-1.315z" fill="#cfdfe8"/><circle cx="43.5" cy="20.5" fill="#32b1cc" r="2.5"/><path d="m35 36-7-7-6 5 8 8z" fill="#fdbd40"/><path d="m25 39 1 9-6 1-11 6 6-10 1-7z" fill="#fcf05a"/><path d="m32 33a1 1 0 0 1 -.707-1.707l5-5a1 1 0 0 1 1.414 1.414l-5 5a1 1 0 0 1 -.707.293z" fill="#32b1cc"/><path d="m29 13a1 1 0 0 1 -.242-1.97l6.952-1.738-.659-1.976a1 1 0 0 1 .949-1.316h8a1 1 0 0 1 0 2h-6.613l.562 1.684a1 1 0 0 1 -.706 1.286l-8 2a1.025 1.025 0 0 1 -.243.03z" fill="#e9686a"/><path d="m53 35a1.025 1.025 0 0 1 -.244-.03 1 1 0 0 1 -.727-1.212l2-8a1 1 0 0 1 .489-.635.987.987 0 0 1 .8-.071l1.684.56v-6.612a1 1 0 0 1 2 0v8a1 1 0 0 1 -1.316.948l-1.976-.658-1.74 6.952a1 1 0 0 1 -.97.758z" fill="#e9686a"/><path d="m57 51a1 1 0 0 1 -1-1 3 3 0 0 0 -3-3 1 1 0 0 1 0-2 3 3 0 0 0 3-3 1 1 0 0 1 2 0 3 3 0 0 0 3 3 1 1 0 0 1 0 2 3 3 0 0 0 -3 3 1 1 0 0 1 -1 1zm-1-5a5.043 5.043 0 0 1 1 1 5.043 5.043 0 0 1 1-1 5.043 5.043 0 0 1 -1-1 5.043 5.043 0 0 1 -1 1z" fill="#fcf05a"/><path d="m6 36h2v2h-2z" fill="#fdbd40"/><path d="m6 32h2v2h-2z" fill="#fdbd40"/><path d="m8 34h2v2h-2z" fill="#fdbd40"/><path d="m4 34h2v2h-2z" fill="#fdbd40"/><path d="m3 62a1 1 0 0 1 -.707-1.707l3-3a1 1 0 0 1 1.414 1.414l-3 3a1 1 0 0 1 -.707.293z" fill="#fcf05a"/><circle cx="45" cy="56" fill="#fdbd40" r="5"/><path d="m38 61a1 1 0 0 1 -.5-1.868l14-8a1 1 0 0 1 .992 1.736l-14 8a.988.988 0 0 1 -.492.132z" fill="#fcf05a"/></svg>
