<svg width="435" height="408" viewBox="0 0 435 408" fill="none" xmlns="http://www.w3.org/2000/svg">
<ellipse cx="324" cy="295.5" rx="59" ry="60.5" fill="#FF9494"/>
<path d="M428.5 295.5C428.5 295.803 428.13 297.865 422.904 301.037C418.066 303.974 410.632 306.851 400.872 309.357C381.451 314.343 354.27 317.5 324 317.5C293.73 317.5 266.549 314.343 247.128 309.357C237.368 306.851 229.934 303.974 225.096 301.037C219.87 297.865 219.5 295.803 219.5 295.5C219.5 295.197 219.87 293.135 225.096 289.963C229.934 287.026 237.368 284.149 247.128 281.643C266.549 276.657 293.73 273.5 324 273.5C354.27 273.5 381.451 276.657 400.872 281.643C410.632 284.149 418.066 287.026 422.904 289.963C428.13 293.135 428.5 295.197 428.5 295.5Z" stroke="#FFF4F4" stroke-width="13"/>
<path d="M383 295.5C383 280.198 377.345 265.464 367.175 254.267C357.004 243.069 343.074 236.239 328.189 235.153C313.304 234.066 298.57 238.804 286.956 248.412C275.341 258.02 267.708 271.783 265.595 286.931L324 295.5H383Z" fill="#FF9494"/>
<ellipse cx="92.5" cy="90.5" rx="92.5" ry="90.5" fill="#FF7161"/>
<path d="M30.7368 97.3288L0 88.5V95.0312C0 99.3258 0.553312 103.603 1.64627 107.756L2.5 111L43.0922 124.269C54.4082 127.968 66.6727 127.508 77.6798 122.971L98.6623 114.323C103.998 112.124 109.673 110.866 115.438 110.603L183.5 107.5L184.447 101.188C184.815 98.7327 185 96.2535 185 93.7709V86L183.5 75L181.75 68L106.726 82L59.6602 96.9312C50.2688 99.9105 40.2065 100.049 30.7368 97.3288Z" fill="#FF5474"/>
<path d="M33.5213 104.602L0 96.9297L0.743216 103.089C1.08047 105.884 1.65318 108.646 2.45524 111.344L3.5 114.859L46.297 126.202C55.6481 128.681 65.5173 128.393 74.7083 125.375L100.204 117.001C104.531 115.58 109.033 114.757 113.583 114.554L182.25 111.5L183.75 104.75L184.304 100.402C184.767 96.77 184.829 93.0981 184.49 89.4525L183.75 81.5L106.726 91.75L56.9321 104.338C49.2594 106.278 41.2359 106.368 33.5213 104.602Z" fill="#F73F61"/>
<path d="M63 41.6087C59.1697 47.4783 47.0865 51.8261 35.6807 54C22.3491 52.2609 23.0053 48.5723 23.0053 41.6087C23.0053 38.2772 26.3241 35.602 29.6711 33.3478C33.3201 30.8902 37.2421 29 43.0026 29C54.0469 29 63 34.6451 63 41.6087Z" fill="#FF5474"/>
<path d="M63 44.5739C59.84 48.5652 49.8713 51.5217 40.4616 53C29.463 51.8174 30.0043 49.3092 30.0043 44.5739C30.0043 42.3085 32.7424 40.4894 35.5036 38.9565C38.5141 37.2853 41.7497 36 46.5022 36C55.6137 36 63 39.8387 63 44.5739Z" fill="#F63F61"/>
<path d="M159 41.5739C155.84 45.5652 145.871 48.5217 136.462 50C125.463 48.8174 126.004 46.3092 126.004 41.5739C126.004 39.3085 128.742 37.4894 131.504 35.9565C134.514 34.2853 137.75 33 142.502 33C151.614 33 159 36.8387 159 41.5739Z" fill="#F63F61"/>
<path d="M35 74.5739C31.84 78.5652 21.8713 81.5217 12.4616 83C1.46303 81.8174 2.00435 79.3092 2.00435 74.5739C2.00435 72.3085 4.74239 70.4894 7.50362 68.9565C10.5141 67.2853 13.7497 66 18.5022 66C27.6137 66 35 69.8387 35 74.5739Z" fill="#F63F61"/>
<path d="M110 13.113C106.84 19.2174 96.8713 23.7391 87.4616 26C76.463 24.1913 77.0043 20.3552 77.0043 13.113C77.0043 9.64833 79.7424 6.86607 82.5036 4.52174C85.5141 1.96582 88.7497 0 93.5022 0C102.614 0 110 5.87091 110 13.113Z" fill="#FF5474"/>
<path d="M62.3068 147.039L25 151.5L18 142.5L65.3974 136.468C70.4364 135.826 75.5437 135.957 80.5434 136.854L102.395 140.776C108.739 141.915 115.242 141.816 121.548 140.486L176 129L170 137.5L124.924 151.489C116.46 154.116 107.451 154.446 98.8174 152.446L79.5291 147.976C73.886 146.669 68.0585 146.352 62.3068 147.039Z" fill="#FF5474"/>
<path d="M78.253 50.8492C83.9156 45.1866 97.851 40.7487 103.709 46.6066C109.567 52.4645 105.129 66.3998 99.4662 72.0624C93.8036 77.725 84.4645 77.5668 78.6066 71.7089C72.7487 65.851 72.5904 56.5118 78.253 50.8492Z" fill="#FF9494"/>
<path d="M120.493 15.0584C122.422 13.1294 127.834 12.2831 130.651 15.0994C133.467 17.9158 132.621 23.3283 130.692 25.2573C128.763 27.1863 124.916 26.4669 122.099 23.6506C119.283 20.8342 118.564 16.9874 120.493 15.0584Z" fill="#FF9494"/>
<path d="M108.493 124.058C110.422 122.129 115.834 121.283 118.651 124.099C121.467 126.916 120.621 132.328 118.692 134.257C116.763 136.186 112.916 135.467 110.099 132.651C107.283 129.834 106.564 125.987 108.493 124.058Z" fill="#FF9494"/>
<path d="M118.493 160.058C120.422 158.129 125.834 157.283 128.651 160.099C131.467 162.916 130.621 168.328 128.692 170.257C126.763 172.186 122.916 171.467 120.099 168.651C117.283 165.834 116.564 161.987 118.493 160.058Z" fill="#FF9494"/>
<path d="M129.493 58.0584C131.422 56.1295 136.834 55.2831 139.651 58.0994C142.467 60.9158 141.621 66.3283 139.692 68.2573C137.763 70.1863 133.916 69.4669 131.099 66.6506C128.283 63.8342 127.564 59.9874 129.493 58.0584Z" fill="#FF9494"/>
<path d="M49.4927 77.0584C51.4217 75.1295 56.8342 74.2831 59.6506 77.0994C62.4669 79.9158 61.6206 85.3283 59.6916 87.2573C57.7626 89.1863 53.9158 88.4669 51.0994 85.6506C48.2831 82.8342 47.5637 78.9874 49.4927 77.0584Z" fill="#FF9494"/>
<path d="M16.4927 124.058C18.4217 122.129 23.8342 121.283 26.6506 124.099C29.4669 126.916 28.6206 132.328 26.6916 134.257C24.7626 136.186 20.9158 135.467 18.0994 132.651C15.2831 129.834 14.5637 125.987 16.4927 124.058Z" fill="#FF9494"/>
<path d="M56.4927 164.058C58.4217 162.129 63.8342 161.283 66.6506 164.099C69.4669 166.916 68.6206 172.328 66.6916 174.257C64.7626 176.186 60.9158 175.467 58.0994 172.651C55.2831 169.834 54.5637 165.987 56.4927 164.058Z" fill="#FF9494"/>
<path d="M215.675 373.308C211.272 371.827 207.272 369.345 203.988 366.059C200.704 362.773 198.226 358.77 196.748 354.366C196.35 353.171 195.586 352.132 194.565 351.395C193.543 350.659 192.315 350.262 191.056 350.262C189.796 350.262 188.569 350.659 187.547 351.395C186.525 352.132 185.761 353.171 185.363 354.366C183.886 358.771 181.407 362.773 178.123 366.06C174.84 369.346 170.839 371.827 166.435 373.308C165.241 373.706 164.202 374.47 163.465 375.492C162.729 376.513 162.333 377.741 162.333 379C162.333 380.259 162.729 381.487 163.465 382.508C164.202 383.53 165.241 384.294 166.435 384.692C170.839 386.173 174.839 388.654 178.123 391.941C181.407 395.227 183.885 399.229 185.363 403.634C185.761 404.829 186.525 405.868 187.547 406.605C188.569 407.341 189.796 407.738 191.056 407.738C192.315 407.738 193.543 407.341 194.565 406.605C195.586 405.868 196.35 404.829 196.748 403.634C198.226 399.229 200.704 395.227 203.988 391.94C207.272 388.654 211.272 386.173 215.675 384.691C216.87 384.293 217.909 383.529 218.645 382.507C219.381 381.486 219.778 380.258 219.778 378.999C219.778 377.74 219.381 376.512 218.645 375.491C217.909 374.469 216.87 373.705 215.675 373.307V373.308Z" fill="#FCF05A"/>
<path d="M389.62 37.5702C385.217 36.0888 381.216 33.6076 377.933 30.3213C374.649 27.0349 372.171 23.0326 370.693 18.6282C370.295 17.4332 369.531 16.3938 368.509 15.6573C367.488 14.9207 366.26 14.5244 365.001 14.5244C363.741 14.5244 362.513 14.9207 361.492 15.6573C360.47 16.3938 359.706 17.4332 359.308 18.6282C357.83 23.0328 355.352 27.0353 352.068 30.3217C348.784 33.6081 344.784 36.0891 340.38 37.5702C339.185 37.9685 338.146 38.7325 337.41 39.7541C336.674 40.7756 336.278 42.0029 336.278 43.2622C336.278 44.5214 336.674 45.7488 337.41 46.7703C338.146 47.7919 339.185 48.5559 340.38 48.9542C344.784 50.4354 348.784 52.9164 352.068 56.2028C355.352 59.4892 357.83 63.4916 359.308 67.8962C359.706 69.0911 360.47 70.1305 361.492 70.8671C362.513 71.6037 363.741 72 365.001 72C366.26 72 367.488 71.6037 368.509 70.8671C369.531 70.1305 370.295 69.0911 370.693 67.8962C372.171 63.4916 374.649 59.4891 377.933 56.2026C381.216 52.9161 385.217 50.4348 389.62 48.9532C390.815 48.5549 391.854 47.7909 392.59 46.7693C393.326 45.7477 393.722 44.5204 393.722 43.2612C393.722 42.0019 393.326 40.7746 392.59 39.7531C391.854 38.7315 390.815 37.9675 389.62 37.5692V37.5702Z" fill="#FCF05A"/>
<path d="M273.12 77.308C268.717 75.8266 264.716 73.3455 261.433 70.0591C258.149 66.7727 255.671 62.7704 254.193 58.366C253.795 57.171 253.031 56.1316 252.009 55.3951C250.988 54.6585 249.76 54.2622 248.501 54.2622C247.241 54.2622 246.013 54.6585 244.992 55.3951C243.97 56.1316 243.206 57.171 242.808 58.366C241.33 62.7707 238.852 66.7731 235.568 70.0595C232.284 73.3459 228.284 75.8269 223.88 77.308C222.685 77.7063 221.646 78.4703 220.91 79.4919C220.174 80.5135 219.778 81.7408 219.778 83C219.778 84.2592 220.174 85.4866 220.91 86.5081C221.646 87.5297 222.685 88.2937 223.88 88.692C228.284 90.1732 232.284 92.6543 235.568 95.9406C238.852 99.227 241.33 103.229 242.808 107.634C243.206 108.829 243.97 109.868 244.992 110.605C246.013 111.341 247.241 111.738 248.501 111.738C249.76 111.738 250.988 111.341 252.009 110.605C253.031 109.868 253.795 108.829 254.193 107.634C255.671 103.229 258.149 99.227 261.433 95.9404C264.716 92.6539 268.717 90.1726 273.12 88.691C274.315 88.2927 275.354 87.5287 276.09 86.5071C276.826 85.4856 277.222 84.2582 277.222 82.999C277.222 81.7398 276.826 80.5124 276.09 79.4909C275.354 78.4693 274.315 77.7053 273.12 77.307V77.308Z" fill="#FCF05A"/>
<path d="M377.342 146.57C372.939 145.089 368.939 142.608 365.655 139.321C362.371 136.035 359.893 132.033 358.415 127.628C358.017 126.433 357.253 125.394 356.232 124.657C355.21 123.921 353.982 123.524 352.723 123.524C351.463 123.524 350.236 123.921 349.214 124.657C348.192 125.394 347.428 126.433 347.03 127.628C345.553 132.033 343.074 136.035 339.79 139.322C336.507 142.608 332.506 145.089 328.102 146.57C326.908 146.968 325.869 147.732 325.132 148.754C324.396 149.776 324 151.003 324 152.262C324 153.521 324.396 154.749 325.132 155.77C325.869 156.792 326.908 157.556 328.102 157.954C332.506 159.435 336.506 161.916 339.79 165.203C343.074 168.489 345.552 172.492 347.03 176.896C347.428 178.091 348.192 179.131 349.214 179.867C350.236 180.604 351.463 181 352.723 181C353.982 181 355.21 180.604 356.232 179.867C357.253 179.131 358.017 178.091 358.415 176.896C359.893 172.492 362.371 168.489 365.655 165.203C368.939 161.916 372.939 159.435 377.342 157.953C378.537 157.555 379.576 156.791 380.312 155.769C381.048 154.748 381.445 153.52 381.445 152.261C381.445 151.002 381.048 149.775 380.312 148.753C379.576 147.731 378.537 146.967 377.342 146.569V146.57Z" fill="#FCF05A"/>
</svg>
