<svg width="1440" height="340" viewBox="0 0 1440 340" fill="none" xmlns="http://www.w3.org/2000/svg">
<path d="M0 1L75.1306 117L229.453 23L357.378 179L532.006 41L763.489 251L1025.43 107L1248.79 271H1386.87L1462 339" stroke="white" stroke-width="2" stroke-dasharray="20 20"/>
<path d="M1257.56 253.603L1260.03 266.419L1274.88 269.037L1261.56 274.339L1264.03 287.154L1253.33 277.616L1240.01 282.918L1246.71 271.721L1236.01 262.183L1250.86 264.801L1257.56 253.603Z" fill="#FCF05A"/>
<path d="M228.229 7L231.648 17.3647H242.713L233.761 23.7705L237.181 34.1353L228.229 27.7295L219.278 34.1353L222.697 23.7705L213.745 17.3647H224.81L228.229 7Z" fill="#FCF05A"/>
<path d="M1027.5 89L1033.67 105.584H1053.65L1037.49 115.833L1043.66 132.416L1027.5 122.167L1011.34 132.416L1017.51 115.833L1001.35 105.584H1021.33L1027.5 89Z" fill="#FCF05A"/>
<path d="M767.55 235L770.969 245.365H782.034L773.082 251.771L776.501 262.135L767.55 255.729L758.598 262.135L762.018 251.771L753.066 245.365H764.131L767.55 235Z" fill="#FCF05A"/>
<path d="M357.5 154L361.654 166.783H375.095L364.221 174.684L368.374 187.467L357.5 179.566L346.626 187.467L350.779 174.684L339.905 166.783H353.346L357.5 154Z" fill="#FCF05A"/>
<path d="M531.229 22L534.648 32.3647H545.713L536.761 38.7705L540.181 49.1353L531.229 42.7295L522.278 49.1353L525.697 38.7705L516.745 32.3647H527.81L531.229 22Z" fill="#FCF05A"/>
</svg>
