<svg width="1440" height="4253" viewBox="0 0 1440 4253" fill="none" xmlns="http://www.w3.org/2000/svg">
<rect x="418.06" y="562.674" width="30.7867" height="26.6215" rx="13.3108" fill="#FCF05A"/>
<rect x="-12.9539" y="2402.22" width="30.7867" height="26.6215" rx="13.3108" fill="#FCF05A"/>
<rect x="725.926" y="2719.02" width="30.7867" height="26.6215" rx="13.3108" fill="#FCF05A"/>
<rect x="150.215" y="3105.03" width="30.7867" height="26.6215" rx="13.3108" fill="#FCF05A"/>
<rect x="978.377" y="4063.41" width="30.7867" height="26.6215" rx="13.3108" fill="#FCF05A"/>
<rect x="479.633" y="4090.03" width="30.7867" height="26.6215" rx="13.3108" fill="#FCF05A"/>
<rect x="-28.3472" y="3970.23" width="30.7867" height="26.6215" rx="13.3108" fill="#FCF05A"/>
<rect x="1323.19" y="3704.02" width="30.7867" height="26.6215" rx="13.3108" fill="#FCF05A"/>
<rect x="119.429" y="3677.39" width="30.7867" height="26.6215" rx="13.3108" fill="#FCF05A"/>
<rect x="962.984" y="3424.49" width="30.7867" height="26.6215" rx="13.3108" fill="#FCF05A"/>
<rect x="387" y="3868" width="30.7867" height="26.6215" rx="13.3108" fill="#FCF05A"/>
<rect x="596.622" y="3730.64" width="30.7867" height="26.6215" rx="13.3108" fill="#FCF05A"/>
<rect x="841.376" y="2998.54" width="30.7867" height="26.6215" rx="13.3108" fill="#FCF05A"/>
<rect x="356.486" y="2297.07" width="30.7867" height="26.6215" rx="13.3108" fill="#FCF05A"/>
<rect x="387.273" y="3371.25" width="30.7867" height="26.6215" rx="13.3108" fill="#FCF05A"/>
<rect x="1227.75" y="2456.8" width="30.7867" height="26.6215" rx="13.3108" fill="#FCF05A"/>
<rect x="211.789" y="2852.13" width="30.7867" height="26.6215" rx="13.3108" fill="#FCF05A"/>
<rect x="935.276" y="2202.56" width="30.7867" height="26.6215" rx="13.3108" fill="#FCF05A"/>
<rect x="418.06" y="1997.57" width="30.7867" height="26.6215" rx="13.3108" fill="#FCF05A"/>
<rect x="2.43945" y="1840.51" width="30.7867" height="26.6215" rx="13.3108" fill="#FCF05A"/>
<rect x="1156.94" y="1853.82" width="30.7867" height="26.6215" rx="13.3108" fill="#FCF05A"/>
<rect x="562.757" y="1702.08" width="30.7867" height="26.6215" rx="13.3108" fill="#FCF05A"/>
<rect x="150.215" y="1502.41" width="30.7867" height="26.6215" rx="13.3108" fill="#FCF05A"/>
<rect x="904.489" y="1353.33" width="30.7867" height="26.6215" rx="13.3108" fill="#FCF05A"/>
<rect x="448.846" y="1193.6" width="30.7867" height="26.6215" rx="13.3108" fill="#FCF05A"/>
<rect x="-28.3472" y="1166.98" width="30.7867" height="26.6215" rx="13.3108" fill="#FCF05A"/>
<rect x="1292.4" y="807.592" width="30.7867" height="26.6215" rx="13.3108" fill="#FCF05A"/>
<rect x="978.377" y="440.215" width="30.7867" height="26.6215" rx="13.3108" fill="#FCF05A"/>
<rect x="430" y="1002" width="30.7867" height="26.6215" rx="13.3108" fill="#FCF05A"/>
<rect x="-12.9539" y="466.836" width="30.7867" height="26.6215" rx="13.3108" fill="#FCF05A"/>
<rect x="565.835" y="213.932" width="30.7867" height="26.6215" rx="13.3108" fill="#FCF05A"/>
</svg>
